<svg xmlns="http://www.w3.org/2000/svg" viewBox="0 0 1225.41 236.18"><g id="Layer_2" data-name="Layer 2"><g id="Capa_1" data-name="Capa 1"><path d="M171.42,175.38V0H235.5q28.17,0,43.78,11.4t15.61,33.15q0,13.91-6.55,23.61t-18.7,15q15.42,5.27,23.73,16.31t8.3,27.42q0,23.61-16.84,36.07t-47.11,12.45ZM234.09,31.57H207.2V70.15h26.89q11.7,0,18.12-5t6.44-14.32q0-9.36-6.44-14.32T234.09,31.57ZM207.2,143.81h29.23q13.8,0,21.4-5.9t7.6-17q0-11.1-7.6-16.89t-21.4-5.79H207.2Z" style="fill:#26217f"/><path d="M458.81,18.71c0-5.62,1.71-10.13,5.14-13.57S471.91,0,477.52,0s10.13,1.72,13.56,5.14,5.14,8,5.14,13.57-1.71,10.13-5.14,13.56-7.95,5.14-13.56,5.14S467.38,35.7,464,32.27,458.81,24.32,458.81,18.71Zm1.87,156.67V58.46h33.67V175.38Z" style="fill:#26217f"/><path d="M522.88,175.38V58.46H554l-.25,14.26a47.17,47.17,0,0,1,16.54-12.27,51.19,51.19,0,0,1,21.22-4.33q20.46,0,32.62,13.51t12.16,37.58v68.17H602.5V113.76q0-28.41-21.28-28.41a22.27,22.27,0,0,0-17.83,8.07q-6.84,8.07-6.84,22.68v59.28Z" style="fill:#26217f"/><path d="M713.11,56.12A56.49,56.49,0,0,1,734.33,60a52.3,52.3,0,0,1,17.13,11.05l.82-12.63h31.8V161.7q0,22.44-8.48,39.17a63.2,63.2,0,0,1-23.73,26q-15.25,9.3-35.84,9.3A100.49,100.49,0,0,1,692,233a127,127,0,0,1-26.08-9.82l10.18-27.95q5.84,4.92,16.36,8.36a64.89,64.89,0,0,0,20.23,3.45q17.42,0,27.59-11.63T750.41,164v-.24A55.22,55.22,0,0,1,733.57,174a55.87,55.87,0,0,1-20.46,3.69,55,55,0,0,1-29.29-7.9,55.7,55.7,0,0,1-20.29-21.63q-7.37-13.73-7.36-31.27t7.36-31.28A55.77,55.77,0,0,1,683.82,64,55,55,0,0,1,713.11,56.12Zm7.6,92.37a27.86,27.86,0,0,0,21.28-9q8.41-9,8.42-22.56T742,94.35a29.66,29.66,0,0,0-42.56,0q-8.41,9-8.42,22.57t8.42,22.56A27.85,27.85,0,0,0,720.71,148.49Z" style="fill:#26217f"/><path d="M863.08,58.46s32.89,72.41,33.67,76.23l31.57-76.23h35.54L891.14,233.84H855.71l26.66-64.31L827.89,58.46Z" style="fill:#26217f"/><path d="M967.25,116.92q0-17.53,8.13-31.28A58.65,58.65,0,0,1,997.6,64q14.08-7.89,32.09-7.89t32,7.89a58.82,58.82,0,0,1,22.15,21.63q8.13,13.74,8.13,31.28t-8.13,31.27a58.75,58.75,0,0,1-22.15,21.63q-14,7.91-32,7.9t-32.09-7.9a58.58,58.58,0,0,1-22.22-21.63Q967.25,134.46,967.25,116.92Zm32.74,0q0,13.56,8.42,22.56a29.63,29.63,0,0,0,42.56,0q8.41-9,8.42-22.56T1051,94.35a29.66,29.66,0,0,0-42.56,0Q1000,103.37,1000,116.92Z" style="fill:#26217f"/><path d="M1111.88,58.58h33.79v62.67q0,13.09,5.5,20.22T1167,148.6q11,0,17.83-7.71t6.84-19.76h.12V58.46h33.67V175.38H1196l-1.4-14.38a48,48,0,0,1-16.49,12.33,50.06,50.06,0,0,1-21,4.39q-22.21,0-33.67-14.38T1111.88,121Z" style="fill:#26217f"/><path d="M439.81,126.48H351.38a27.48,27.48,0,0,0,11.3,17.16q8.9,6.31,22.16,6.31A44.93,44.93,0,0,0,401,147.23a39.3,39.3,0,0,0,13.14-8.58l18,19.55Q415.7,177.1,384,177.11q-19.77,0-35-7.72A56.48,56.48,0,0,1,325.52,148a58.92,58.92,0,0,1-8.26-31.07,59.76,59.76,0,0,1,8.15-31,57,57,0,0,1,22.38-21.51,69.25,69.25,0,0,1,62.9-.33A54,54,0,0,1,432.53,85.3q7.94,13.8,7.93,32.05C440.46,117.79,440.25,120.83,439.81,126.48ZM360.5,88.89q-7.81,6.52-9.56,17.82h57.58Q406.78,95.63,399,89t-19.12-6.63Q368.32,82.37,360.5,88.89Z" style="fill:#26217f"/><path d="M16.16,45.56C7.1,46.39,0,54.4,0,63.8v43.26c0,13.53,2.66,25.55,7.9,35.71a59,59,0,0,0,22.41,24c9.56,5.68,20.83,8.57,33.5,8.57s24-2.89,33.54-8.57a58.94,58.94,0,0,0,22.36-24c5.24-10.17,7.9-22.18,7.9-35.71V63.32a17.83,17.83,0,1,0-35.66,0v43.74c0,11-2.65,20-7.89,26.52C79,139.9,72.19,143.1,63.81,143.1s-15.2-3.2-20.25-9.52c-5.24-6.54-7.9-15.47-7.9-26.52V63.32a17.88,17.88,0,0,0-5.82-13.17,17.69,17.69,0,0,0-13.68-4.59Z" style="fill:#db4e16"/><path d="M86.55,23.1c0,.33,0,.66,0,1C86,36.38,76.36,46.18,64.47,46.18S42.89,36.38,42.4,24.09c0-.33,0-.66,0-1V5.5A5.37,5.37,0,0,1,47.63,0H64.47C76.67,0,86.55,10.35,86.55,23.1Z" style="fill:#db4e16"/></g></g></svg>