<svg xmlns="http://www.w3.org/2000/svg" viewBox="0 0 384.22 170.92"><g id="Layer_2" data-name="Layer 2"><g id="Capa_1" data-name="Capa 1"><path d="M0,170.92V0H62.44q27.47,0,42.67,11.11t15.21,32.3q0,13.56-6.38,23T95.71,81q15,5.13,23.13,15.9t8.09,26.72q0,23-16.4,35.15T64.61,170.92ZM61.07,30.76H34.87V68.37h26.2q11.4,0,17.67-4.85t6.26-14q0-9.12-6.26-14T61.07,30.76ZM34.87,140.15H63.35q13.45,0,20.85-5.75t7.41-16.58q0-10.83-7.41-16.47T63.35,95.71H34.87Z" style="fill:#26217f"/><path d="M287.47,58.23a15.81,15.81,0,0,0-14,15.83v37.55c0,11.75,2.31,22.18,6.87,31a51,51,0,0,0,19.45,20.87c8.29,4.93,18.08,7.44,29.07,7.44s20.85-2.51,29.12-7.45a51.2,51.2,0,0,0,19.41-20.86c4.55-8.83,6.86-19.26,6.86-31v-38a15.48,15.48,0,1,0-31,0v38c0,9.59-2.3,17.34-6.85,23a22.82,22.82,0,0,1-35.16,0c-4.54-5.68-6.85-13.42-6.85-23v-38a15.52,15.52,0,0,0-5-11.43,15.36,15.36,0,0,0-11.88-4Z" style="fill:#db4e16"/><path d="M259,122.06H173.66a26.54,26.54,0,0,0,10.91,16.56q8.6,6.09,21.39,6.08a43.27,43.27,0,0,0,15.62-2.62A32.85,32.85,0,0,0,226,140a13.27,13.27,0,0,1,16.25,2.53h0a13.23,13.23,0,0,1-3.11,20.43q-13.83,8-34.06,8-19.1,0-33.76-7.45a54.56,54.56,0,0,1-22.65-20.65,56.94,56.94,0,0,1-8-30A57.59,57.59,0,0,1,148.61,83,55.2,55.2,0,0,1,170.2,62.19a66.89,66.89,0,0,1,60.71-.31A52.07,52.07,0,0,1,252,82.32q7.65,13.32,7.65,30.93C259.63,113.67,259.43,116.61,259,122.06ZM182.47,85.78q-7.54,6.3-9.23,17.2h55.57a27,27,0,0,0-9.23-17.09,27.59,27.59,0,0,0-18.45-6.4Q190,79.49,182.47,85.78Z" style="fill:#26217f"/><path d="M348.42,38.42c0,.28,0,.57,0,.85-.42,10.58-8.75,19-19,19s-18.58-8.44-19-19c0-.28,0-.57,0-.85V23.27a4.62,4.62,0,0,1,4.52-4.72h14.5C339.91,18.55,348.42,27.45,348.42,38.42Z" style="fill:#db4e16"/></g></g></svg>