<svg xmlns="http://www.w3.org/2000/svg" viewBox="0 0 281.72 385.31"><g id="Layer_2" data-name="Layer 2"><g id="Capa_1" data-name="Capa 1"><path d="M35.67,98.73C15.67,100.55,0,118.24,0,139v95.5c0,29.87,5.87,56.4,17.45,78.83C29.13,336,45.77,353.81,66.91,366.39s46,18.92,74,18.92,53-6.37,74-18.92,37.68-30.44,49.36-53.07c11.58-22.44,17.45-49,17.45-78.83V137.92a39.37,39.37,0,0,0-78.73,0v96.57c0,24.4-5.86,44.1-17.42,58.55-11.16,13.95-26.2,21-44.71,21S107.3,307,96.15,293c-11.56-14.45-17.42-34.15-17.42-58.55V137.92a39.51,39.51,0,0,0-12.85-29.07A39.06,39.06,0,0,0,35.67,98.73Z" style="fill:#fff"/><path d="M188.92,49.85c0,.7,0,1.42,0,2.12-1.06,26.54-22,47.71-47.63,47.71S94.65,78.51,93.59,52c0-.7,0-1.42,0-2.12v-38A11.6,11.6,0,0,1,104.89,0h36.36C167.59,0,188.92,22.32,188.92,49.85Z" style="fill:#fff"/></g></g></svg>