<svg xmlns="http://www.w3.org/2000/svg" viewBox="0 0 157.45 139.63"><g id="Layer_2" data-name="Layer 2"><g id="Capa_1" data-name="Capa 1"><path d="M118.18,0h14.39c4.87,0,9.74,0,14.61,0,6,0,10.26,4.21,10.26,10.24q0,39,0,77.94c0,6-4.22,10.22-10.27,10.23h-29Z" style="fill:#26217f"/><path d="M.19,72.57c0-.28-.08-.56-.11-.85-.51-5.09,1.49-10.4,2.56-15.32Q4.88,46,7.12,35.64c1.25-5.75,2.39-11.53,3.8-17.25C13.61,7.51,23.46.06,35.09,0q24-.08,48,0c14.4,0,25.16,10.79,25.17,25.19q0,25.22,0,50.44A24.93,24.93,0,0,1,101.57,93c-5.27,5.83-37.44,37.37-46,45.72a.32.32,0,0,1-.09.08,3,3,0,0,1-3.92.2l-.33-.29-6.5-5.88-1.29-1.16-1-.9-.06,0L42,130.3l0,0a15.62,15.62,0,0,1-1.87-20.47s10.6-12.32,11-13.13c2.42-4.39.24-8.06-4.78-8.07-9.43,0-18.87.09-28.3,0C9,88.45,1.48,81.34.19,72.57Z" style="fill:#26217f"/></g></g></svg>