<svg xmlns="http://www.w3.org/2000/svg" viewBox="0 0 168.07 140.17"><g id="Layer_2" data-name="Layer 2"><g id="Capa_1" data-name="Capa 1"><path d="M70.08,0A70.09,70.09,0,0,0,0,70.09v66.53L0,137a3.66,3.66,0,0,0,3.62,3.17H70.08A70.09,70.09,0,0,0,70.08,0Z" style="fill:#26217f"/><path d="M92.32,34.73H38.92a4,4,0,0,0-4,4v66a4,4,0,0,0,3.27,4h67.41a4,4,0,0,0,3.27-4V51.52" style="fill:#fff"/><path d="M92.32,34.73V49.56a.13.13,0,0,0,0,.06,1.41,1.41,0,0,0,0,.2,2,2,0,0,0,1.94,1.7h14.57" style="fill:#26217f"/><path d="M87.52,84.47H56.23a4.73,4.73,0,0,1,0-9.46H87.52a4.73,4.73,0,1,1,0,9.46Z" style="fill:#26217f"/><path d="M87.52,68.43H56.23a4.73,4.73,0,1,1,0-9.46H87.52a4.73,4.73,0,0,1,0,9.46Z" style="fill:#26217f"/><path d="M142.56,88.67a25.51,25.51,0,0,0-25.51,25.51V138.4a.66.66,0,0,0,0,.14,1.33,1.33,0,0,0,1.32,1.15h24.18a25.51,25.51,0,0,0,0-51Z" style="fill:#db4e16"/><path d="M139.16,123.7a2.62,2.62,0,0,1-1.87-.77l-7.19-7.19,3.73-3.72,5.33,5.32,12.68-12.69,3.73,3.73L141,122.93A2.61,2.61,0,0,1,139.16,123.7Z" style="fill:#fff"/></g></g></svg>