<svg xmlns="http://www.w3.org/2000/svg" viewBox="0 0 166.82 139.55"><g id="Layer_2" data-name="Layer 2"><g id="Capa_1" data-name="Capa 1"><path d="M69.77,0A69.78,69.78,0,0,0,0,69.78V136l0,.38a3.64,3.64,0,0,0,3.61,3.15H69.77A69.78,69.78,0,1,0,69.77,0Z" style="fill:#26217f"/><path d="M42.58,98.45l-5.88,5.86c-17.29-16.43-19.17-47-.21-65.86l6,5.9C28.22,58.47,27.52,83.45,42.58,98.45Z" style="fill:#fff"/><path d="M103.4,38.43c17.93,17.31,18.3,48,0,65.85l-5.93-6a38.66,38.66,0,0,0,0-53.94Z" style="fill:#fff"/><path d="M70,84.11A12.8,12.8,0,1,1,82.82,71.32,12.73,12.73,0,0,1,70,84.11Z" style="fill:#fff"/><path d="M54.79,86.35l-5.93,5.9c-11.4-10.39-12-30.64,0-41.88l5.92,5.91a21.49,21.49,0,0,0,0,30.07Z" style="fill:#fff"/><path d="M91.35,50.46c11.38,10.64,11.38,31.27,0,41.71l-6-6a21.5,21.5,0,0,0,0-29.77C87.37,54.43,89.33,52.48,91.35,50.46Z" style="fill:#fff"/><path d="M141.31,88.33a25.51,25.51,0,0,0-25.51,25.51v24.22s0,.09,0,.14a1.33,1.33,0,0,0,1.32,1.15h24.18a25.51,25.51,0,0,0,0-51Z" style="fill:#db4e16"/><path d="M137.91,123.36a2.58,2.58,0,0,1-1.86-.77l-7.19-7.19,3.72-3.72,5.33,5.32,12.69-12.69,3.72,3.73-14.55,14.55A2.59,2.59,0,0,1,137.91,123.36Z" style="fill:#fff"/></g></g></svg>