<svg xmlns="http://www.w3.org/2000/svg" viewBox="0 0 140.02 140.03"><g id="Layer_2" data-name="Layer 2"><g id="Capa_1" data-name="Capa 1"><path d="M70,0A70,70,0,0,0,0,70v66.47l0,.38A3.66,3.66,0,0,0,3.65,140H70A70,70,0,0,0,70,0ZM89.6,89.56a17.29,17.29,0,0,1-5.26,6.28,19.69,19.69,0,0,1-8.69,3.5l.45,7.16H66.22l.45-7.12A31.51,31.51,0,0,1,58,97a41.12,41.12,0,0,1-8-4.67L55.77,82q2.46,2.15,4.73,3.87a19.5,19.5,0,0,0,4.86,2.74,16.67,16.67,0,0,0,6,1,7.91,7.91,0,0,0,5.39-1.83,5.71,5.71,0,0,0,2.1-4.47A5.53,5.53,0,0,0,77,79a19.07,19.07,0,0,0-5-3.07q-3.09-1.33-6.52-2.71a44.69,44.69,0,0,1-6.53-3.26,16.25,16.25,0,0,1-5-4.71,12.21,12.21,0,0,1-2-7.08,14.22,14.22,0,0,1,3.86-9.94q3.87-4.21,11-5.42l-.45-7.2H76.1l-.45,7a30.94,30.94,0,0,1,7,1.63,74.24,74.24,0,0,1,6.93,2.94l-5.55,9.51a54.1,54.1,0,0,0-6-3.07,17.51,17.51,0,0,0-6.67-1.13,8.46,8.46,0,0,0-5,1.38,4.26,4.26,0,0,0-1.91,3.6,4.81,4.81,0,0,0,1.95,3.91,21.36,21.36,0,0,0,5,2.86c2,.87,4.22,1.77,6.52,2.7a42.53,42.53,0,0,1,6.53,3.31,16.75,16.75,0,0,1,5,4.78,12.31,12.31,0,0,1,2,7.1A16.85,16.85,0,0,1,89.6,89.56Z" style="fill:#26217f"/></g></g></svg>