<?xml version="1.0" encoding="utf-8"?>
<!-- Generator: Adobe Illustrator 24.3.0, SVG Export Plug-In . SVG Version: 6.00 Build 0)  -->
<svg version="1.1" id="_1" xmlns="http://www.w3.org/2000/svg" xmlns:xlink="http://www.w3.org/1999/xlink" x="0px" y="0px"
	 viewBox="0 0 4951.3 2680.4" style="enable-background:new 0 0 4951.3 2680.4;" xml:space="preserve">
<style type="text/css">
	.st0{fill:#FDE7DB;}
	.st1{fill:#805046;}
	.st2{fill:#4C2E4F;}
	.st3{fill:#CC4141;}
	.st4{fill:#F19542;}
	.st5{fill:#F88C76;}
	.st6{fill:#F2B588;}
	.st7{fill:#FFFFFF;}
	.st8{fill:#CF9A8C;}
</style>
<g>
	<path class="st0" d="M1417.9,537.3l-86.8-20.9c-5.9-1.4-11.9-1.7-17.9-1l-88.2,11.2c-37.5,4.8-66.4-32.5-52.4-67.7
		c5.7-14.3,17.7-25.1,32.4-29.3l66.9-19.2c14.5-4.2,26.4-14.7,32.2-28.7l39.1-94c4.3-10.5,12.1-19.1,22.1-24.5l85.8-46.8
		c7.9-4.3,16.9-6.4,25.9-6l38.6,1.6c38.5,1.6,60.5,44.6,39.4,76.8l-64.4,98.3c-4.9,7.5-7.7,16.2-8.1,25.1l-3.4,79
		C1477.8,522.4,1448.3,544.6,1417.9,537.3z"/>
	<path class="st0" d="M2001.6,539.4l-182,381.5c-10.9,22.9-33.2,38.2-58.5,40.3c-39.9,3.2-74.6-27.1-76.8-67l-14.7-269.9
		c-1.2-21.4-11.9-41.1-29.2-53.6l-48.1-35c-30.5-22.2-38.4-64.4-17.9-96.1l106.8-165.7c12.4-19.3,33.4-31.4,56.4-32.5l166.5-8
		c36.6-1.8,68.5,24.6,73.8,60.8l29.7,204.3C2009.8,512.5,2007.7,526.7,2001.6,539.4z"/>
	<path class="st0" d="M1539.6,841.6l-18.4-9.2c-15.1-7.5-25.8-21.7-28.9-38.3l-14.9-78.8c-2.1-11-7.5-21.1-15.6-28.9l-14.8-14.2
		c-22.2-21.4-22.1-57,0.4-78.2c16.2-15.3,40-19,60.1-9.6l75.4,35.6c18.4,8.7,30.3,26.9,30.9,47.2l3.9,124.3
		C1619,832.4,1576.1,859.8,1539.6,841.6z"/>
	<path class="st0" d="M1278.4,937.9l88.1,78.4c19.5,17.3,50.4,8.4,57.5-16.7l21-73.4c3.9-13.6,15.6-23.6,29.7-25.4l82.8-10.2
		c14.5-1.8,28.5,5.5,35.5,18.3l56.5,104.7l67.5,125.4c7.4,13.8,4.9,30.9-6.3,41.9l-304.7,301.4c-11.9,11.8-30.5,13.6-44.5,4.3
		l-34.2-22.7c-16.4-10.9-38.6-6.3-49.3,10.2l-21.8,33.6c-9.6,14.9-6.8,34.5,6.6,46.1l95.7,82.2c18.2,15.6,15.9,44.5-4.6,57
		c-12.4,7.6-28.3,6.8-39.9-2l-154.7-117.4l-267.8-224.9c-6.6-5.5-10.9-13.2-12.2-21.7L855.3,1171c-0.6-3.8-1.8-7.4-3.5-10.8
		L735.6,934.8c-8-15.5-26.1-22.9-42.7-17.3l-191.5,64.2c-23.3,7.8-47.3-9.9-46.6-34.5l2.3-81.5c0.2-7.8-2.1-15.4-6.7-21.7
		l-51.6-71.2c-6-8.2-8.1-18.6-5.9-28.5L427,591.8c4.9-22.1,29.1-33.9,49.5-24.3l210.3,98.6c7.8,3.6,16.6,4.3,24.8,2l158.3-45.7
		c7.4-2.1,15.3-1.8,22.5,1l201.9,77.4c8.4,3.2,17.6,3.1,25.9-0.2l182.5-73.9c11.5-4.7,24.7-2.9,34.6,4.6l59.2,44.8
		c15.8,12,18.7,34.6,6.4,50.1l-129,163.5C1262.5,904.3,1264.4,925.5,1278.4,937.9z"/>
	<path class="st0" d="M1756.9,1783.2l160.5,101.5c16.4,10.3,20.7,32.3,9.6,48.1L1614.9,2378c-3.6,5.1-5.7,11-6.1,17.2l-5.1,75.8
		c-1.8,26.9-32.8,41-54.3,24.7l-91.5-69.5c-10.1-7.7-15.1-20.3-12.9-32.8l63.1-365.3c1.7-9.8-1-19.8-7.3-27.4L1393.1,1871
		c-10.3-12.4-10.4-30.3-0.4-42.8l27.2-34c7.2-9,9.3-21,5.7-31.9c-5.7-17.1,3-35.7,19.8-42.3l179.7-70.7c14.4-5.6,30.7-0.9,39.8,11.6
		l82.8,113.6C1750.2,1778,1753.3,1780.9,1756.9,1783.2z"/>
	<path class="st0" d="M2538.1,1408.6l46.1-18.1c11.2-4.4,23.5-5.6,35.4-3.5l51.6,9.4c24.6,4.5,44.5,22.7,51.1,46.8l20.1,73.4
		c2,7.4,5.3,14.3,9.7,20.5l119.8,168.4c18.2,25.6,15.5,60.6-6.4,83.1l-110.8,113.5c-9.9,10.2-16.3,23.3-18,37.4l-22.5,182.3
		c-7.3,59.1-83.6,78.1-117.8,29.3l-135.2-193.3c-6.4-9.2-10.4-19.9-11.4-31.1l-16.2-169.1c-2.7-28.4-23.7-51.7-51.6-57.5l-175.5-36
		c-41.9-8.6-64.2-54.6-45-92.8l60-119.5c6.5-12.9,17.1-23.3,30.2-29.5l126.8-60.3c29.1-13.8,64-4.3,81.9,22.5
		C2477.3,1409.7,2509.7,1419.8,2538.1,1408.6z"/>
	<path class="st0" d="M2934.8,1983.9l-54.2,47.2c-15.9,13.9-40.7,1.8-39.6-19.3l5.3-100.9c0.5-9.3,6.3-17.4,14.9-20.9l48.9-19.9
		c15.7-6.4,33,5.2,33,22.2v73.5C2943,1972.8,2940,1979.4,2934.8,1983.9z"/>
	<path class="st0" d="M4496.4,777.3l-160.8-186.5c-2.8-3.3-6.9-5.2-11.2-5.4l-435.7-16.2c-1,0-2-0.2-2.9-0.4l-248.8-65.5
		c-31.9-8.4-48.5-43.6-34.6-73.6l6.5-14c4.6-10,3.1-21.8-3.9-30.4l-31-37.5c-8.5-10.3-22.9-13.4-34.8-7.5l-264.2,130.1
		c-8.7,4.3-14.6,12.6-15.8,22.2l-6.8,54c-2.8,21.9-28.2,32.6-45.8,19.3l-45.6-34.3c-10.7-8.1-25.6-7.7-35.9,1.1l-38.3,32.5
		c-2.8,2.4-5.1,5.3-6.8,8.5l-38.6,73.3c-4.2,8-11.9,13.5-20.7,15l-98.5,16.2c-9.8,1.6-18,8.1-21.8,17.2l-26.6,63.3
		c-5.4,12.8-19.1,19.9-32.6,16.9c-2.9-0.6-5.8-0.8-8.6-0.6c-4.5-1.3-9.6-0.7-13.8,2.5l-10.3,7.8c-10.6,8.1-25.8-0.1-24.9-13.5
		l1.6-23.5c0.3-4.8-1.6-9.5-5.2-12.8L2646,617.9c-6.4-5.6-16.2-5.1-21.9,1.3l-233.9,261.4c-5.9,6.6-5.1,16.8,1.8,22.4l61.7,50.4
		c6.9,5.6,17.1,4.3,22.4-2.9l71.8-97.9c8.9-12.2,28.2-5.8,28.1,9.3l-0.5,52.3c0,4.1-1.7,8-4.6,10.9l-138.1,137.5
		c-2.4,2.4-5.6,3.9-8.9,4.4l-69.6,8.3c-9.3,1.1-16.9,7.8-19.2,16.8l-37.5,146c-1.6,6.8-7.6,11.6-14.6,11.9l-35,1.2
		c-7.6,0.3-13.9,5.9-14.9,13.5l-9.1,67.3c-1.5,11.1,8.8,20.1,19.6,17.1l127-35.6c5.5-1.5,9.7-5.9,11-11.5l14.6-63.1
		c2.5-10.9,15.5-15.7,24.5-9l32.8,24.4c4.4,3.3,6.8,8.7,6.2,14.2l-6.6,60.5c-1.2,10.6,8.5,19.2,18.9,16.9l24.8-5.6
		c2-0.4,3.9-1.3,5.5-2.4l31.5-22c3.9-2.7,6.3-7.2,6.3-12c0-16.1,21.7-21.5,29.1-7.1l22.2,42.5c4.4,8.5,15.4,11,23.1,5.3l41.1-30.7
		c5-3.7,11.8-4.1,17.1-1l49.7,29c7.4,4.3,9.9,13.8,5.6,21.2l-36.9,63.8c-2.1,3.7-2.7,8.1-1.5,12.1l21.8,74.8
		c2.4,8.2,10.9,12.9,19.1,10.6l39.3-11c6-1.7,12.4,0.4,16.3,5.2l107.5,133.9c4.7,5.8,12.8,7.5,19.4,4l133.8-71
		c8.7-4.6,11-16.1,4.7-23.6l-48.8-59c-0.7-0.9-1.5-1.6-2.4-2.3l-53.3-41.9c-3.1-2.5,81.1,26,81.1,26c1.8,0.8,3.7,1.3,5.6,1.4
		l94.6,5.4c5.3,0.3,10.1,3.3,12.7,7.9l61.8,109.6l71.2,117.7c8.6,14.2,30.5,6.9,28.8-9.6l-11.1-111.4c-0.5-5.4,1.8-10.7,6.1-14
		l84-63.2c8.7-6.5,21.2-2.4,24.3,8.1l36.8,125.7c4,13.5,22.4,15.2,28.8,2.7l22.1-43c3.7-7.3,12.5-10.4,20-7.2l80.3,34.8
		c11.3,4.9,23.6-4.7,21.5-16.8l-11.5-69c-1.1-6.4,2-12.9,7.7-16.1l136.8-77.6c5.8-3.3,8.9-10,7.6-16.5l-13.7-69.6
		c-1.6-8.2,3.6-16.3,11.7-18.2l20.6-4.8c3.9-0.9,7.2-3.2,9.4-6.5l47-70.5c2.3-3.5,3.1-7.7,2.3-11.8l-11.3-54.4
		c-2-9.7,5.4-18.7,15.2-18.7h45.9c5.3,0,10.2-2.7,13.1-7.1l76-117.7c5.9-9.2,0.8-21.5-10-23.7c-14.4-3-17.1-22.5-3.9-29.1
		l126.7-64.3c11-5.6,23.8,3.3,22.5,15.5l-9.9,92c-1.6,15,16.9,23.3,27,12.1l156.4-172.4c1.3-1.5,3-2.7,4.8-3.6l205.5-99.4
		C4500.6,797,4503.1,785.1,4496.4,777.3z"/>
	<path class="st0" d="M3110.2,421.4l-130.5,180.2c-6.7,9.3-21.2,6.5-23.9-4.7l-9.7-39.2c-0.9-3.8-0.2-7.8,2.1-11l95.1-134.3
		c2.1-3,5.4-5,9-5.5l45.1-6.8C3109.1,398.4,3117.2,411.7,3110.2,421.4z"/>
	<path class="st0" d="M3972.1,1295.4l-74.7,47.4c-8.8,5.6-20.5,0.2-21.9-10.2c-0.5-3.8,0.5-7.6,2.8-10.7l70.8-92.1
		c8-10.4,24.5-5.5,25.6,7.5l4,44.7C3979.2,1287.4,3976.6,1292.6,3972.1,1295.4z"/>
	<path class="st0" d="M3593,1814.6l107,25.9c6.1,1.5,11.3,5.2,14.6,10.5c10.7,17.1-3.2,39-23.3,36.4l-159.5-20.1
		c-7.8-1-14.6-5.7-18.2-12.7l-41.9-80.1c-5.8-11.1-2-24.9,8.7-31.5l12.5-7.7c10-6.1,23.1-4.1,30.7,4.9l56.7,66.5
		C3583.7,1810.7,3588.1,1813.4,3593,1814.6z"/>
	<path class="st0" d="M3779.1,1662.5l-80.7,98.1c-3.2,3.8-7.9,6.1-12.8,6.1h-17.1c-13.1,0-21-14.4-14.1-25.5l59.5-94.6
		c2.8-4.4,7.4-7.2,12.5-7.7l38.2-3.6C3779.5,1634.1,3788.5,1651.1,3779.1,1662.5z"/>
	<path class="st0" d="M4409,2275.9l-103.4,73.8c-4,2.9-9.2,3.8-14,2.5l-16.5-4.4c-12.6-3.4-16.6-19.4-7-28.3l82-75.9
		c3.8-3.5,9-5.1,14.1-4.2l37.9,6.5C4416.7,2248.5,4421,2267.3,4409,2275.9z"/>
	<path class="st0" d="M3897.6,1828.1l-37.1-7.8c-20.5-4.3-27.2-30.2-11.3-43.9c6.9-6,16.5-7.7,25.1-4.6l155.6,56.5
		c6.1,2.2,11.1,6.7,14,12.4l9,18c7.4,14.7-1,32.4-17,36l-43.4,9.8c-8.8,2-17.9-0.8-24-7.4l-57.7-61.6
		C3907.4,1831.8,3902.7,1829.2,3897.6,1828.1z"/>
	<path class="st0" d="M3969,2292.6l-3.7-9.6c-6.9-17.6-20.6-31.8-38-39.2l-67.9-29.1c-19.1-8.2-40.9-7.6-59.5,1.7l-64.8,32.4
		c-44.4,22.2-97.2-6.9-102.1-56.3l-6.7-66.8c-2.5-25.3,8.7-50,29.4-64.7l141.5-100.6c3-2.2,6.2-4.1,9.6-5.7l85.2-42.2
		c26.7-13.3,58.9-8.3,80.5,12.4l147.4,141.5c16,15.4,23.9,37.4,21.3,59.5l-17.4,144.9c-3.5,29.5-25.1,53.7-54,60.5l-18.6,4.4
		C4016.9,2343.7,3981.9,2325.4,3969,2292.6z"/>
	<path class="st0" d="M2349.5,1068.5l-26.6,6.4c-10.7,2.6-20.8-5.7-20.5-16.6l1.3-46.5c0.1-3.7-1-7.3-3.2-10.2l-26.9-48.6
		c-6.9-9.6-1.9-23.2,9.6-25.9l14.6-3.5c8.1-1.9,16.4,2.4,19.4,10.1l43.8,112.7C2364.8,1055.7,2359.3,1066.2,2349.5,1068.5z"/>
	<path class="st0" d="M2289.5,1027l-22.9,25.9c-4.1,4.7-11.8,2.8-13.2-3.3l-9.7-40.4c-0.7-3,0.4-6.1,2.8-7.9l16.4-12.5
		c3.6-2.8,8.9-1.8,11.3,2.1l16.3,27C2292,1020.9,2291.7,1024.5,2289.5,1027z"/>
</g>
<g>
	<g>
		<g>
			
				<rect x="952.7" y="666.6" transform="matrix(0.9998 -2.230170e-02 2.230170e-02 0.9998 -14.7609 21.5823)" class="st1" width="15" height="12"/>
		</g>
		<g>
			<path class="st1" d="M998.3,677.7l-0.3-12l30.4-0.7l0.3,12L998.3,677.7z M1059.1,676.4l-0.3-12l30.4-0.7l0.3,12L1059.1,676.4z
				 M1120,675l-0.3-12l30.4-0.7l0.3,12L1120,675z M1180.8,673.7l-0.3-12l30.4-0.7l0.3,12L1180.8,673.7z M1241.6,672.3l-0.3-12
				l30.4-0.7l0.3,12L1241.6,672.3z M1302.5,671l-0.3-12l30.4-0.7l0.3,12L1302.5,671z M1363.3,669.6l-0.3-12l30.4-0.7l0.3,12
				L1363.3,669.6z M1424.1,668.3l-0.3-12l30.4-0.7l0.3,12L1424.1,668.3z M1485,666.9l-0.3-12l30.4-0.7l0.3,12L1485,666.9z
				 M1545.8,665.6l-0.3-12l30.4-0.7l0.3,12L1545.8,665.6z M1606.7,664.2l-0.3-12l30.4-0.7l0.3,12L1606.7,664.2z M1667.5,662.9
				l-0.3-12l30.4-0.7l0.3,12L1667.5,662.9z M1728.3,661.5l-0.3-12l30.4-0.7l0.3,12L1728.3,661.5z M1789.2,660.2l-0.3-12l30.4-0.7
				l0.3,12L1789.2,660.2z M1850,658.8l-0.3-12l30.4-0.7l0.3,12L1850,658.8z M1910.8,657.5l-0.3-12l30.4-0.7l0.3,12L1910.8,657.5z
				 M1971.7,656.1l-0.3-12l30.4-0.7l0.3,12L1971.7,656.1z M2032.5,654.8l-0.3-12l30.4-0.7l0.3,12L2032.5,654.8z M2093.3,653.4
				l-0.3-12l30.4-0.7l0.3,12L2093.3,653.4z M2154.2,652.1l-0.3-12l30.4-0.7l0.3,12L2154.2,652.1z M2215,650.7l-0.3-12l30.4-0.7
				l0.3,12L2215,650.7z M2275.9,649.4l-0.3-12l30.4-0.7l0.3,12L2275.9,649.4z M2336.7,648l-0.3-12l30.4-0.7l0.3,12L2336.7,648z
				 M2397.5,646.6l-0.3-12l30.4-0.7l0.3,12L2397.5,646.6z"/>
		</g>
		<g>
			
				<rect x="2458.2" y="633.1" transform="matrix(0.9998 -2.221840e-02 2.221840e-02 0.9998 -13.5918 54.9422)" class="st1" width="15" height="12"/>
		</g>
	</g>
	<g>
		<path class="st1" d="M1186.3,1113.3l-21.2-21.2l8.5-8.5l21.2,21.2L1186.3,1113.3z M1143.9,1070.9l-21.2-21.2l8.5-8.5l21.2,21.2
			L1143.9,1070.9z M1101.4,1028.5l-21.2-21.2l8.5-8.5l21.2,21.2L1101.4,1028.5z M1059,986.1l-21.2-21.2l8.5-8.5l21.2,21.2
			L1059,986.1z M1016.6,943.6l-21.2-21.2l8.5-8.5l21.2,21.2L1016.6,943.6z M974.2,901.2L953,880l8.5-8.5l21.2,21.2L974.2,901.2z
			 M931.7,858.8l-21.2-21.2l8.5-8.5l21.2,21.2L931.7,858.8z"/>
	</g>
	<g>
		<path class="st1" d="M1435.8,1148.5l-4.4-11.2l27.9-11.1l4.4,11.2L1435.8,1148.5z M1491.5,1126.3l-4.4-11.2l27.9-11.1l4.4,11.2
			L1491.5,1126.3z M1547.3,1104.2l-4.4-11.2l27.9-11.1l4.4,11.2L1547.3,1104.2z M1603.1,1082.1l-4.4-11.2l27.9-11.1l4.4,11.2
			L1603.1,1082.1z M1658.8,1059.9l-4.4-11.2l27.9-11.1l4.4,11.2L1658.8,1059.9z M1714.6,1037.8l-4.4-11.2l27.9-11.1l4.4,11.2
			L1714.6,1037.8z M1770.4,1015.6l-4.4-11.2l27.9-11.1l4.4,11.2L1770.4,1015.6z M1826.1,993.5l-4.4-11.2l27.9-11.1l4.4,11.2
			L1826.1,993.5z M1881.9,971.3l-4.4-11.2l27.9-11.1l4.4,11.2L1881.9,971.3z M1937.7,949.2l-4.4-11.2l27.9-11.1l4.4,11.2
			L1937.7,949.2z M1993.4,927l-4.4-11.2l27.9-11.1l4.4,11.2L1993.4,927z M2049.2,904.9l-4.4-11.2l27.9-11.1l4.4,11.2L2049.2,904.9z
			 M2104.9,882.7l-4.4-11.2l27.9-11.1l4.4,11.2L2104.9,882.7z M2160.7,860.6l-4.4-11.2l27.9-11.1l4.4,11.2L2160.7,860.6z
			 M2216.5,838.5l-4.4-11.2l27.9-11.1l4.4,11.2L2216.5,838.5z M2272.2,816.3l-4.4-11.2l27.9-11.1l4.4,11.2L2272.2,816.3z
			 M2328,794.2l-4.4-11.2l27.9-11.1l4.4,11.2L2328,794.2z M2383.8,772l-4.4-11.2l27.9-11.1l4.4,11.2L2383.8,772z M2439.5,749.9
			l-4.4-11.2l27.9-11.1l4.4,11.2L2439.5,749.9z M2495.3,727.7l-4.4-11.2l27.9-11.1l4.4,11.2L2495.3,727.7z"/>
	</g>
	<g>
		<path class="st1" d="M1641.9,1716.5l-15.1-25.9l10.4-6l15.1,25.9L1641.9,1716.5z M1611.6,1664.6l-15.1-25.9l10.4-6l15.1,25.9
			L1611.6,1664.6z M1581.4,1612.8l-15.1-25.9l10.4-6l15.1,25.9L1581.4,1612.8z M1551.2,1561l-15.1-25.9l10.4-6l15.1,25.9
			L1551.2,1561z M1521,1509.1l-15.1-25.9l10.4-6l15.1,25.9L1521,1509.1z M1490.8,1457.3l-15.1-25.9l10.4-6l15.1,25.9L1490.8,1457.3z
			 M1460.6,1405.5l-15.1-25.9l10.4-6l15.1,25.9L1460.6,1405.5z M1430.3,1353.6l-15.1-25.9l10.4-6l15.1,25.9L1430.3,1353.6z"/>
	</g>
	<g>
		<path class="st1" d="M1889.7,1771l-8.4-8.5l21.3-21.1l8.4,8.5L1889.7,1771z M1932.3,1728.8l-8.4-8.5l21.3-21.1l8.4,8.5
			L1932.3,1728.8z M1974.9,1686.6l-8.4-8.5l21.3-21.1l8.4,8.5L1974.9,1686.6z M2017.6,1644.3l-8.4-8.5l21.3-21.1l8.4,8.5
			L2017.6,1644.3z M2060.2,1602.1l-8.4-8.5l21.3-21.1l8.4,8.5L2060.2,1602.1z M2102.8,1559.9l-8.4-8.5l21.3-21.1l8.4,8.5
			L2102.8,1559.9z M2145.4,1517.6l-8.4-8.5l21.3-21.1l8.4,8.5L2145.4,1517.6z M2188.1,1475.4l-8.4-8.5l21.3-21.1l8.4,8.5
			L2188.1,1475.4z M2230.7,1433.2l-8.4-8.5l21.3-21.1l8.4,8.5L2230.7,1433.2z M2273.3,1391l-8.4-8.5l21.3-21.1l8.4,8.5L2273.3,1391z
			 M2315.9,1348.7l-8.4-8.5l21.3-21.1l8.4,8.5L2315.9,1348.7z M2358.6,1306.5l-8.4-8.5l21.3-21.1l8.4,8.5L2358.6,1306.5z
			 M2401.2,1264.3l-8.4-8.5l21.3-21.1l8.4,8.5L2401.2,1264.3z M2443.8,1222l-8.4-8.5l21.3-21.1l8.4,8.5L2443.8,1222z"/>
	</g>
	<g>
		<path class="st1" d="M2539.4,1024.5l-11.9-1.6l4-29.7l11.9,1.6L2539.4,1024.5z M2547.4,965l-11.9-1.6l4-29.7l11.9,1.6L2547.4,965z
			 M2555.3,905.5l-11.9-1.6l4-29.7l11.9,1.6L2555.3,905.5z M2563.3,846l-11.9-1.6l4-29.7l11.9,1.6L2563.3,846z M2571.2,786.6
			l-11.9-1.6l4-29.7l11.9,1.6L2571.2,786.6z M2579.1,727.1l-11.9-1.6l4-29.7l11.9,1.6L2579.1,727.1z"/>
	</g>
	<g>
		<path class="st1" d="M3138.5,765.4l-29.3-6.3l2.5-11.7l29.3,6.3L3138.5,765.4z M3079.8,752.8l-29.3-6.3l2.5-11.7l29.3,6.3
			L3079.8,752.8z M3021.1,740.2l-29.3-6.3l2.5-11.7l29.3,6.3L3021.1,740.2z M2962.5,727.7l-29.3-6.3l2.5-11.7l29.3,6.3L2962.5,727.7
			z M2903.8,715.1l-29.3-6.3l2.5-11.7l29.3,6.3L2903.8,715.1z M2845.1,702.5l-29.3-6.3l2.5-11.7l29.3,6.3L2845.1,702.5z M2786.5,690
			l-29.3-6.3l2.5-11.7l29.3,6.3L2786.5,690z M2727.8,677.4l-29.3-6.3l2.5-11.7l29.3,6.3L2727.8,677.4z"/>
	</g>
	<g>
		<path class="st1" d="M4222.6,812.4l-12.3-0.3l0.3-12l12.3,0.3L4222.6,812.4z M4180.2,811.3l-30-0.8l0.3-12l30,0.8L4180.2,811.3z
			 M4120.2,809.7l-30-0.8l0.3-12l30,0.8L4120.2,809.7z M4060.3,808.2l-30-0.8l0.3-12l30,0.8L4060.3,808.2z M4000.3,806.6l-30-0.8
			l0.3-12l30,0.8L4000.3,806.6z M3940.3,805l-30-0.8l0.3-12l30,0.8L3940.3,805z M3880.3,803.4l-30-0.8l0.3-12l30,0.8L3880.3,803.4z
			 M3820.3,801.8l-30-0.8l0.3-12l30,0.8L3820.3,801.8z M3760.4,800.3l-30-0.8l0.3-12l30,0.8L3760.4,800.3z M3700.4,798.7l-30-0.8
			l0.3-12l30,0.8L3700.4,798.7z M3640.4,797.1l-30-0.8l0.3-12l30,0.8L3640.4,797.1z M3580.4,795.5l-30-0.8l0.3-12l30,0.8
			L3580.4,795.5z M3520.4,794l-30-0.8l0.3-12l30,0.8L3520.4,794z M3460.5,792.4l-30-0.8l0.3-12l30,0.8L3460.5,792.4z"/>
	</g>
	<g>
		<path class="st1" d="M3883.8,1133l-6.3-10.2l25.5-15.8l6.3,10.2L3883.8,1133z M3934.8,1101.4l-6.3-10.2l25.5-15.8l6.3,10.2
			L3934.8,1101.4z M3985.7,1069.7l-6.3-10.2l25.5-15.8l6.3,10.2L3985.7,1069.7z M4036.7,1038l-6.3-10.2l25.5-15.8l6.3,10.2
			L4036.7,1038z M4087.7,1006.3l-6.3-10.2l25.5-15.8l6.3,10.2L4087.7,1006.3z M4138.6,974.7l-6.3-10.2l25.5-15.8l6.3,10.2
			L4138.6,974.7z M4189.6,943l-6.3-10.2l25.5-15.8l6.3,10.2L4189.6,943z M4240.5,911.3l-6.3-10.2l25.5-15.8l6.3,10.2L4240.5,911.3z"
			/>
	</g>
	<g>
		<path class="st1" d="M3285,1350.7l-0.4-8l12-0.7l0.4,8L3285,1350.7z M3282.9,1312.8l-1.7-30l12-0.7l1.7,30L3282.9,1312.8z
			 M3279.6,1252.9l-1.7-30l12-0.7l1.7,30L3279.6,1252.9z M3276.3,1193l-1.7-30l12-0.7l1.7,30L3276.3,1193z M3273,1133l-1.7-30
			l12-0.7l1.7,30L3273,1133z M3269.7,1073.1l-1.7-30l12-0.7l1.7,30L3269.7,1073.1z M3266.3,1013.2l-1.7-30l12-0.7l1.7,30
			L3266.3,1013.2z M3263,953.3l-1.7-30l12-0.7l1.7,30L3263,953.3z"/>
	</g>
	<g>
		<path class="st1" d="M3708,1117.7l-26.1-14.8l5.9-10.4l26.1,14.8L3708,1117.7z M3655.9,1088l-26.1-14.8l5.9-10.4l26.1,14.8
			L3655.9,1088z M3603.7,1058.4l-26.1-14.8l5.9-10.4l26.1,14.8L3603.7,1058.4z M3551.5,1028.8l-26.1-14.8l5.9-10.4l26.1,14.8
			L3551.5,1028.8z M3499.3,999.2l-26.1-14.8l5.9-10.4l26.1,14.8L3499.3,999.2z M3447.1,969.6l-26.1-14.8l5.9-10.4l26.1,14.8
			L3447.1,969.6z M3394.9,940l-26.1-14.8l5.9-10.4l26.1,14.8L3394.9,940z M3342.8,910.4l-26.1-14.8l5.9-10.4l26.1,14.8L3342.8,910.4
			z"/>
	</g>
	<g>
		<path class="st1" d="M2824.8,1388.4l-9.7-7.1l17.7-24.3l9.7,7.1L2824.8,1388.4z M2860.1,1339.8l-9.7-7.1l17.7-24.3l9.7,7.1
			L2860.1,1339.8z M2895.4,1291.3l-9.7-7.1l17.7-24.3l9.7,7.1L2895.4,1291.3z M2930.7,1242.8l-9.7-7.1l17.7-24.3l9.7,7.1
			L2930.7,1242.8z M2966,1194.3l-9.7-7.1l17.7-24.3l9.7,7.1L2966,1194.3z M3001.3,1145.8l-9.7-7.1l17.7-24.3l9.7,7.1L3001.3,1145.8z
			 M3036.6,1097.3l-9.7-7.1l17.7-24.3l9.7,7.1L3036.6,1097.3z M3071.9,1048.8l-9.7-7.1l17.7-24.3l9.7,7.1L3071.9,1048.8z
			 M3107.2,1000.3l-9.7-7.1l17.7-24.3l9.7,7.1L3107.2,1000.3z M3142.5,951.7l-9.7-7.1l17.7-24.3l9.7,7.1L3142.5,951.7z
			 M3177.8,903.2l-9.7-7.1l17.7-24.3l9.7,7.1L3177.8,903.2z"/>
	</g>
	<g>
		<path class="st1" d="M2718.3,1360.4l-17.7-24.2l9.7-7.1l17.7,24.2L2718.3,1360.4z M2682.8,1312l-17.7-24.2l9.7-7.1l17.7,24.2
			L2682.8,1312z M2647.3,1263.6l-17.7-24.2l9.7-7.1l17.7,24.2L2647.3,1263.6z M2611.9,1215.2l-17.7-24.2l9.7-7.1l17.7,24.2
			L2611.9,1215.2z"/>
	</g>
	<g>
		<path class="st1" d="M2643.9,1061.1l-4.7-11l27.6-11.8l4.7,11L2643.9,1061.1z M2699.1,1037.4l-4.7-11l27.6-11.8l4.7,11
			L2699.1,1037.4z M2754.2,1013.8l-4.7-11l27.6-11.8l4.7,11L2754.2,1013.8z M2809.4,990.2l-4.7-11l27.6-11.8l4.7,11L2809.4,990.2z
			 M2864.5,966.5l-4.7-11l27.6-11.8l4.7,11L2864.5,966.5z M2919.7,942.9l-4.7-11l27.6-11.8l4.7,11L2919.7,942.9z M2974.8,919.3
			l-4.7-11l27.6-11.8l4.7,11L2974.8,919.3z M3030,895.6l-4.7-11l27.6-11.8l4.7,11L3030,895.6z M3085.1,872l-4.7-11l27.6-11.8l4.7,11
			L3085.1,872z"/>
	</g>
	<g>
		<path class="st1" d="M1407.7,1228.9l-1.2-11.9l29.9-2.9l1.2,11.9L1407.7,1228.9z M1467.4,1223.1l-1.1-11.9l29.9-2.9l1.1,11.9
			L1467.4,1223.1z M1527.1,1217.4l-1.1-11.9l29.9-2.9l1.2,11.9L1527.1,1217.4z M1586.8,1211.6l-1.2-11.9l29.9-2.9l1.2,11.9
			L1586.8,1211.6z M1646.5,1205.9l-1.1-11.9l29.9-2.9l1.1,11.9L1646.5,1205.9z M1706.3,1200.1l-1.2-11.9l29.9-2.9l1.2,11.9
			L1706.3,1200.1z M1766,1194.4l-1.2-11.9l29.9-2.9l1.1,11.9L1766,1194.4z M1825.7,1188.6l-1.1-11.9l29.9-2.9l1.1,11.9
			L1825.7,1188.6z M1885.4,1182.9l-1.2-11.9l29.9-2.9l1.2,11.9L1885.4,1182.9z M1945.2,1177.1l-1.1-11.9l29.9-2.9l1.2,11.9
			L1945.2,1177.1z M2004.9,1171.4l-1.2-11.9l29.9-2.9l1.2,11.9L2004.9,1171.4z M2064.6,1165.6l-1.1-11.9l29.9-2.9l1.2,11.9
			L2064.6,1165.6z M2124.3,1159.9l-1.2-11.9l29.9-2.9l1.2,11.9L2124.3,1159.9z M2184.1,1154.1l-1.1-11.9l29.9-2.9l1.2,11.9
			L2184.1,1154.1z M2243.8,1148.4l-1.2-11.9l29.9-2.9l1.2,11.9L2243.8,1148.4z M2303.5,1142.6l-1.1-11.9l29.9-2.9l1.1,11.9
			L2303.5,1142.6z M2363.2,1136.9l-1.2-11.9l29.9-2.9l1.1,11.9L2363.2,1136.9z M2423,1131.1l-1.2-11.9l29.9-2.9l1.2,11.9
			L2423,1131.1z"/>
	</g>
	<g>
		<path class="st1" d="M2595.6,1900.7l-3.6-29.8l11.9-1.4l3.6,29.8L2595.6,1900.7z M2588.4,1841.2l-3.6-29.8l11.9-1.4l3.6,29.8
			L2588.4,1841.2z M2581.3,1781.6l-3.6-29.8l11.9-1.4l3.6,29.8L2581.3,1781.6z M2574.1,1722l-3.6-29.8l11.9-1.4l3.6,29.8
			L2574.1,1722z M2566.9,1662.5l-3.6-29.8l11.9-1.4l3.6,29.8L2566.9,1662.5z M2559.8,1602.9l-3.6-29.8l11.9-1.4l3.6,29.8
			L2559.8,1602.9z M2552.6,1543.3l-3.6-29.8l11.9-1.4l3.6,29.8L2552.6,1543.3z M2545.5,1483.7l-3.6-29.8l11.9-1.4l3.6,29.8
			L2545.5,1483.7z M2538.3,1424.2l-3.6-29.8l11.9-1.4l3.6,29.8L2538.3,1424.2z M2531.2,1364.6l-3.6-29.8l11.9-1.4l3.6,29.8
			L2531.2,1364.6z M2524,1305l-3.6-29.8l11.9-1.4l3.6,29.8L2524,1305z M2516.9,1245.5l-3.6-29.8l11.9-1.4l3.6,29.8L2516.9,1245.5z"
			/>
	</g>
	<g>
		<path class="st1" d="M2571.9,1994.2l-12.4-1.3l1.2-11.9l12.4,1.3L2571.9,1994.2z M2529.6,1989.8l-29.8-3.1l1.2-11.9l29.8,3.1
			L2529.6,1989.8z M2469.9,1983.7l-29.8-3.1l1.2-11.9l29.8,3.1L2469.9,1983.7z M2410.2,1977.5l-29.8-3.1l1.2-11.9l29.8,3.1
			L2410.2,1977.5z M2350.5,1971.4l-29.8-3.1l1.2-11.9l29.8,3.1L2350.5,1971.4z M2290.9,1965.2l-29.8-3.1l1.2-11.9l29.8,3.1
			L2290.9,1965.2z M2231.2,1959.1l-29.8-3.1l1.2-11.9l29.8,3.1L2231.2,1959.1z M2171.5,1952.9l-29.8-3.1l1.2-11.9l29.8,3.1
			L2171.5,1952.9z M2111.8,1946.8l-29.8-3.1l1.2-11.9l29.8,3.1L2111.8,1946.8z M2052.1,1940.6l-29.8-3.1l1.2-11.9l29.8,3.1
			L2052.1,1940.6z M1992.4,1934.4l-29.8-3.1l1.2-11.9l29.8,3.1L1992.4,1934.4z M1932.8,1928.3l-29.8-3.1l1.2-11.9l29.8,3.1
			L1932.8,1928.3z M1873.1,1922.1l-29.8-3.1l1.2-11.9l29.8,3.1L1873.1,1922.1z"/>
	</g>
	<g>
		<path class="st1" d="M1663.5,2180.4l-11.6-3.1l1.3-4.7l11.6,3.1L1663.5,2180.4z M1672.5,2146.7l-11.6-3.1l7.8-29l11.6,3.1
			L1672.5,2146.7z M1688.1,2088.7l-11.6-3.1l7.8-29l11.6,3.1L1688.1,2088.7z M1703.6,2030.8l-11.6-3.1l7.8-29l11.6,3.1
			L1703.6,2030.8z M1719.2,1972.8l-11.6-3.1l7.8-29l11.6,3.1L1719.2,1972.8z"/>
	</g>
	<g>
		<path class="st1" d="M1653.8,2278.7l-2.9-11.6l29.1-7.4l2.9,11.6L1653.8,2278.7z M1712,2263.9l-2.9-11.6l29.1-7.4l2.9,11.6
			L1712,2263.9z M1770.1,2249.2l-2.9-11.6l29.1-7.4l2.9,11.6L1770.1,2249.2z M1828.3,2234.4l-2.9-11.6l29.1-7.4l2.9,11.6
			L1828.3,2234.4z M1886.5,2219.7l-2.9-11.6l29.1-7.4l2.9,11.6L1886.5,2219.7z M1944.6,2204.9l-2.9-11.6l29.1-7.4l3,11.6
			L1944.6,2204.9z M2002.8,2190.2l-2.9-11.6l29.1-7.4l2.9,11.6L2002.8,2190.2z M2060.9,2175.4l-2.9-11.6l29.1-7.4l3,11.6
			L2060.9,2175.4z M2119.1,2160.7l-2.9-11.6l29.1-7.4l2.9,11.6L2119.1,2160.7z M2177.2,2145.9l-2.9-11.6l29.1-7.4l2.9,11.6
			L2177.2,2145.9z M2235.4,2131.2l-2.9-11.6l29.1-7.4l2.9,11.6L2235.4,2131.2z M2293.6,2116.4l-3-11.6l29.1-7.4l3,11.6
			L2293.6,2116.4z M2351.7,2101.7l-2.9-11.6l29.1-7.4l2.9,11.6L2351.7,2101.7z M2409.9,2086.9l-2.9-11.6l29.1-7.4l2.9,11.6
			L2409.9,2086.9z M2468,2072.2l-3-11.6l29.1-7.4l3,11.6L2468,2072.2z M2526.2,2057.4l-2.9-11.6l29.1-7.4l2.9,11.6L2526.2,2057.4z
			 M2584.4,2042.7l-3-11.6l0.5-0.1l3,11.6L2584.4,2042.7z"/>
	</g>
	<g>
		<g>
			<path class="st1" d="M1502.6,2245.3l-13.9-26.6l10.6-5.6l13.9,26.6L1502.6,2245.3z M1474.8,2192.1l-13.9-26.6l10.6-5.6l13.9,26.6
				L1474.8,2192.1z M1447.1,2138.9l-13.9-26.6l10.6-5.6l13.9,26.6L1447.1,2138.9z M1419.3,2085.8l-13.9-26.6l10.6-5.6l13.9,26.6
				L1419.3,2085.8z M1391.5,2032.6l-13.9-26.6l10.6-5.6l13.9,26.6L1391.5,2032.6z M1363.7,1979.4l-13.9-26.6l10.6-5.6l13.9,26.6
				L1363.7,1979.4z M1335.9,1926.2l-13.9-26.6l10.6-5.6l13.9,26.6L1335.9,1926.2z M1308.1,1873l-13.9-26.6l10.6-5.6l13.9,26.6
				L1308.1,1873z M1280.3,1819.9l-13.9-26.6l10.6-5.6l13.9,26.6L1280.3,1819.9z M1252.5,1766.7l-13.9-26.6l10.6-5.6l13.9,26.6
				L1252.5,1766.7z M1224.7,1713.5l-13.9-26.6l10.6-5.6l13.9,26.6L1224.7,1713.5z M1197,1660.3l-13.9-26.6l10.6-5.6l13.9,26.6
				L1197,1660.3z M1169.2,1607.2l-13.9-26.6l10.6-5.6l13.9,26.6L1169.2,1607.2z M1141.4,1554l-13.9-26.6l10.6-5.6l13.9,26.6
				L1141.4,1554z M1113.6,1500.8l-13.9-26.6l10.6-5.6l13.9,26.6L1113.6,1500.8z M1085.8,1447.6l-13.9-26.6l10.6-5.6l13.9,26.6
				L1085.8,1447.6z M1058,1394.5l-13.9-26.6l10.6-5.6l13.9,26.6L1058,1394.5z M1030.2,1341.3l-13.9-26.6l10.6-5.6l13.9,26.6
				L1030.2,1341.3z M1002.4,1288.1l-13.9-26.6l10.6-5.6l13.9,26.6L1002.4,1288.1z M974.6,1234.9l-13.9-26.6l10.6-5.6l13.9,26.6
				L974.6,1234.9z M946.8,1181.8l-13.9-26.6l10.6-5.6l13.9,26.6L946.8,1181.8z M919.1,1128.6l-13.9-26.6l10.6-5.6l13.9,26.6
				L919.1,1128.6z M891.3,1075.4l-13.9-26.6l10.6-5.6l13.9,26.6L891.3,1075.4z M863.5,1022.2l-13.9-26.6l10.6-5.6l13.9,26.6
				L863.5,1022.2z M835.7,969l-13.9-26.6l10.6-5.6l13.9,26.6L835.7,969z M807.9,915.9L794,889.3l10.6-5.6l13.9,26.6L807.9,915.9z
				 M780.1,862.7l-13.9-26.6l10.6-5.6l13.9,26.6L780.1,862.7z"/>
		</g>
	</g>
	<g>
		<path class="st1" d="M3820,2030l-30-0.8l0.3-12l30,0.8L3820,2030z M3760,2028.5l-30-0.8l0.3-12l30,0.8L3760,2028.5z
			 M3700.1,2026.9l-30-0.8l0.3-12l30,0.8L3700.1,2026.9z M3640.1,2025.4l-30-0.8l0.3-12l30,0.8L3640.1,2025.4z M3580.1,2023.9
			l-30-0.8l0.3-12l30,0.8L3580.1,2023.9z M3520.1,2022.3l-30-0.8l0.3-12l30,0.8L3520.1,2022.3z M3460.1,2020.8l-30-0.8l0.3-12
			l30,0.8L3460.1,2020.8z M3400.2,2019.2l-30-0.8l0.3-12l30,0.8L3400.2,2019.2z M3340.2,2017.7l-30-0.8l0.3-12l30,0.8L3340.2,2017.7
			z M3280.2,2016.2l-30-0.8l0.3-12l30,0.8L3280.2,2016.2z M3220.2,2014.6l-30-0.8l0.3-12l30,0.8L3220.2,2014.6z M3160.2,2013.1
			l-30-0.8l0.3-12l30,0.8L3160.2,2013.1z M3100.3,2011.5l-30-0.8l0.3-12l30,0.8L3100.3,2011.5z M3040.3,2010l-30-0.8l0.3-12l30,0.8
			L3040.3,2010z M2980.3,2008.5l-30-0.8l0.3-12l30,0.8L2980.3,2008.5z M2920.3,2006.9l-30-0.8l0.3-12l30,0.8L2920.3,2006.9z
			 M2860.3,2005.4l-30-0.8l0.3-12l30,0.8L2860.3,2005.4z M2800.4,2003.8l-30-0.8l0.3-12l30,0.8L2800.4,2003.8z M2740.4,2002.3
			l-30-0.8l0.3-12l30,0.8L2740.4,2002.3z"/>
	</g>
	<g>
		<path class="st1" d="M3907.2,1998.4l-27-13.1l5.2-10.8l27,13.1L3907.2,1998.4z M3853.2,1972.2l-27-13.1l5.2-10.8l27,13.1
			L3853.2,1972.2z M3799.3,1946l-27-13.1l5.2-10.8l27,13.1L3799.3,1946z M3745.3,1919.7l-27-13.1l5.2-10.8l27,13.1L3745.3,1919.7z
			 M3691.4,1893.5l-27-13.1l5.2-10.8l27,13.1L3691.4,1893.5z M3637.4,1867.3l-27-13.1l5.2-10.8l27,13.1L3637.4,1867.3z M3583.4,1841
			l-27-13.1l5.2-10.8l27,13.1L3583.4,1841z M3529.5,1814.8l-27-13.1l5.2-10.8l27,13.1L3529.5,1814.8z M3475.5,1788.6l-27-13.1
			l5.2-10.8l27,13.1L3475.5,1788.6z M3421.5,1762.3l-27-13.1l5.2-10.8l27,13.1L3421.5,1762.3z M3367.6,1736.1l-27-13.1l5.2-10.8
			l27,13.1L3367.6,1736.1z M3313.6,1709.9l-27-13.1l5.2-10.8l27,13.1L3313.6,1709.9z M3259.7,1683.6l-27-13.1l5.2-10.8l27,13.1
			L3259.7,1683.6z M3205.7,1657.4l-27-13.1l5.2-10.8l27,13.1L3205.7,1657.4z M3151.7,1631.2l-27-13.1l5.2-10.8l27,13.1
			L3151.7,1631.2z M3097.8,1604.9l-27-13.1l5.2-10.8l27,13.1L3097.8,1604.9z M3043.8,1578.7l-27-13.1l5.2-10.8l27,13.1
			L3043.8,1578.7z M2989.9,1552.5l-27-13.1l5.2-10.8l27,13.1L2989.9,1552.5z M2935.9,1526.2l-27-13.1l5.2-10.8l27,13.1
			L2935.9,1526.2z M2881.9,1500l-27-13.1l5.2-10.8l27,13.1L2881.9,1500z"/>
	</g>
	<g>
		<path class="st1" d="M3895.5,1936.3l-22.6-19.7l7.9-9l22.6,19.7L3895.5,1936.3z M3850.3,1896.9l-22.6-19.7l7.9-9l22.6,19.7
			L3850.3,1896.9z M3805,1857.4l-22.6-19.7l7.9-9l22.6,19.7L3805,1857.4z M3759.8,1818l-22.6-19.7l7.9-9l22.6,19.7L3759.8,1818z
			 M3714.6,1778.5l-22.6-19.7l7.9-9l22.6,19.7L3714.6,1778.5z M3669.4,1739.1l-22.6-19.7l7.9-9l22.6,19.7L3669.4,1739.1z
			 M3624.2,1699.6l-22.6-19.7l7.9-9l22.6,19.7L3624.2,1699.6z M3579,1660.2l-22.6-19.7l7.9-9l22.6,19.7L3579,1660.2z M3533.8,1620.7
			l-22.6-19.7l7.9-9l22.6,19.7L3533.8,1620.7z M3488.6,1581.2l-22.6-19.7l7.9-9l22.6,19.7L3488.6,1581.2z M3443.4,1541.8l-22.6-19.7
			l7.9-9l22.6,19.7L3443.4,1541.8z M3398.2,1502.3l-22.6-19.7l7.9-9l22.6,19.7L3398.2,1502.3z"/>
	</g>
	<g>
		<path class="st1" d="M3901.1,1883.7l-0.5-3.7l11.9-1.5l0.5,3.7L3901.1,1883.7z M3896.9,1850.3l-3.8-29.8l11.9-1.5l3.8,29.8
			L3896.9,1850.3z M3889.3,1790.7l-3.8-29.8l11.9-1.5l3.8,29.8L3889.3,1790.7z M3881.7,1731.2l-3.8-29.8l11.9-1.5l3.8,29.8
			L3881.7,1731.2z M3874.2,1671.7l-3.8-29.8l11.9-1.5l3.8,29.8L3874.2,1671.7z M3866.6,1612.2l-3.8-29.8l11.9-1.5l3.8,29.8
			L3866.6,1612.2z M3859.1,1552.7l-3.8-29.8l11.9-1.5l3.8,29.8L3859.1,1552.7z M3851.5,1493.1l-3.8-29.8l11.9-1.5l3.8,29.8
			L3851.5,1493.1z M3844,1433.6l-3.8-29.8l11.9-1.5l3.8,29.8L3844,1433.6z M3836.4,1374.1l-3.8-29.8l11.9-1.5l3.8,29.8
			L3836.4,1374.1z M3828.9,1314.6l-3.8-29.8l11.9-1.5l3.8,29.8L3828.9,1314.6z"/>
	</g>
	<g>
		<path class="st1" d="M4029.9,1870l-11.5-3.6l8.9-28.6l11.5,3.6L4029.9,1870z M4047.8,1812.7l-11.5-3.6l8.9-28.6l11.5,3.6
			L4047.8,1812.7z M4065.6,1755.4l-11.5-3.6l8.9-28.6l11.5,3.6L4065.6,1755.4z M4083.5,1698.1l-11.5-3.6l8.9-28.6l11.5,3.6
			L4083.5,1698.1z M4101.3,1640.9l-11.5-3.6l8.9-28.6l11.5,3.6L4101.3,1640.9z M4119.2,1583.6l-11.5-3.6l8.9-28.6l11.5,3.6
			L4119.2,1583.6z M4137,1526.3l-11.5-3.6l8.9-28.6l11.5,3.6L4137,1526.3z M4154.9,1469l-11.5-3.6l8.9-28.6l11.5,3.6L4154.9,1469z
			 M4172.7,1411.7l-11.5-3.6l8.9-28.6l11.5,3.6L4172.7,1411.7z M4190.6,1354.4l-11.5-3.6l8.9-28.6l11.5,3.6L4190.6,1354.4z
			 M4208.4,1297.2l-11.5-3.6l8.9-28.6l11.5,3.6L4208.4,1297.2z M4226.3,1239.9l-11.5-3.6l8.9-28.6l11.5,3.6L4226.3,1239.9z
			 M4244.1,1182.6l-11.5-3.6l8.9-28.6l11.5,3.6L4244.1,1182.6z M4262,1125.3l-11.5-3.6l8.9-28.6l11.5,3.6L4262,1125.3z M4279.8,1068
			l-11.5-3.6l8.9-28.6l11.5,3.6L4279.8,1068z M4297.7,1010.7l-11.5-3.6l8.9-28.6l11.5,3.6L4297.7,1010.7z M4315.5,953.5l-11.5-3.6
			l8.9-28.6l11.5,3.6L4315.5,953.5z"/>
	</g>
</g>
<ellipse transform="matrix(0.7071 -0.7071 0.7071 0.7071 -278.2526 770.9)" class="st2" cx="791.4" cy="721.3" rx="201.7" ry="201.7"/>
<path class="st2" d="M775.3,674.6c-2.1,0-3.8-1.7-3.8-3.8v-4.6c0-2.1,1.7-3.8,3.8-3.8c2.1,0,3.8,1.7,3.8,3.8v4.6
	C779.1,672.9,777.4,674.6,775.3,674.6z"/>
<path class="st2" d="M831.2,674.6c-2.1,0-3.8-1.7-3.8-3.8v-4.6c0-2.1,1.7-3.8,3.8-3.8c2.1,0,3.8,1.7,3.8,3.8v4.6
	C835,672.9,833.2,674.6,831.2,674.6z"/>
<ellipse transform="matrix(0.7071 -0.7071 0.7071 0.7071 -443.4335 1331.2761)" class="st3" cx="1385.3" cy="1200.9" rx="201.7" ry="201.7"/>
<rect x="1392.1" y="1247.8" transform="matrix(0.7071 -0.7071 0.7071 0.7071 -477.8508 1357.7345)" class="st3" width="15.8" height="15.8"/>
<ellipse transform="matrix(0.7071 -0.7071 0.7071 0.7071 -796.1533 1748.0234)" class="st4" cx="1712" cy="1835.1" rx="201.7" ry="201.7"/>
<path class="st5" d="M1676.3,1815h-7.8c-6.2,0-11.6-4.3-13.1-10.3l-2-8.1c-3-12.2,6.3-24,18.8-24h4.1V1815z"/>
<ellipse transform="matrix(0.7071 -0.7071 0.7071 0.7071 -209.7637 2407.0618)" class="st2" cx="2800.7" cy="1456.7" rx="201.7" ry="201.7"/>
<ellipse transform="matrix(0.7071 -0.7071 0.7071 0.7071 280.9261 3006.7681)" class="st4" cx="3770" cy="1164.3" rx="201.7" ry="201.7"/>
<ellipse transform="matrix(0.7071 -0.7071 0.7071 0.7071 401.4911 2540.479)" class="st2" cx="3267.4" cy="785.6" rx="201.7" ry="201.7"/>
<path class="st2" d="M3284.5,726.8c2.1,0,3.8-1.7,3.8-3.8v-3.4c0-2.1-1.7-3.8-3.8-3.8c-2.1,0-3.8,1.7-3.8,3.8v3.4
	C3280.7,725.1,3282.4,726.8,3284.5,726.8z"/>
<path class="st2" d="M3230.5,727c2.1,0,3.8-1.7,3.8-3.8v-3.4c0-2.1-1.7-3.8-3.8-3.8c-2.1,0-3.8,1.7-3.8,3.8v3.4
	C3226.7,725.3,3228.4,727,3230.5,727z"/>
<path class="st2" d="M3290.7,835.3c-5.6-5.6-14.6-5.8-20.5-0.6l-6.1-6.1l-6,6c-5.9-5.3-14.9-5.1-20.6,0.6c-5.9,5.9-5.9,15.4,0,21.2
	c5.9,5.9,15.4,5.9,21.2,0l5.3-5.3l5.5,5.5c5.9,5.9,15.4,5.9,21.2,0C3296.5,850.7,3296.5,841.2,3290.7,835.3z"/>
<ellipse transform="matrix(0.7071 -0.7071 0.7071 0.7071 -274.4355 3360.3838)" class="st3" cx="3919.1" cy="2011.5" rx="201.7" ry="201.7"/>
<circle class="st3" cx="1602" cy="2304.1" r="149"/>
<circle class="st6" cx="2622.2" cy="1964.7" r="149"/>
<circle class="st4" cx="2532.3" cy="1116.6" r="149"/>
<circle class="st7" cx="3297.7" cy="1393.4" r="149"/>
<circle class="st3" cx="2577.2" cy="639" r="149"/>
<ellipse transform="matrix(0.7071 -0.7071 0.7071 0.7071 -313.5333 1614.7091)" class="st2" cx="1792.4" cy="1185.8" rx="75.6" ry="75.6"/>
<path class="st7" d="M1826.4,1154.7h-68c-4.9,0-8.9,4-8.9,8.9v38.8c0,4.9,4,8.9,8.9,8.9h2.9v22.8l16.6-22.8h48.6
	c4.9,0,8.9-4,8.9-8.9v-38.8C1835.2,1158.6,1831.3,1154.7,1826.4,1154.7z"/>
<g>
	<path class="st2" d="M1764.9,1171.1h56.5H1764.9z"/>
	<rect x="1764.9" y="1169.6" class="st2" width="56.5" height="3"/>
</g>
<g>
	<path class="st2" d="M1764.9,1181.6h56.5H1764.9z"/>
	<rect x="1764.9" y="1180.1" class="st2" width="56.5" height="3"/>
</g>
<g>
	<path class="st2" d="M1764.9,1192.1h56.5H1764.9z"/>
	<rect x="1764.9" y="1190.6" class="st2" width="56.5" height="3"/>
</g>
<circle class="st3" cx="2233.5" cy="1412.5" r="106.2"/>
<path class="st7" d="M2280.7,1443h-94.3c-4.3,0-7.9-3.5-7.9-7.9v-49.8c0-4.3,3.5-7.9,7.9-7.9h94.3c4.3,0,7.9,3.5,7.9,7.9v49.8
	C2288.5,1439.5,2285,1443,2280.7,1443z"/>
<rect x="2257.6" y="1401.4" class="st4" width="21.5" height="14.3"/>
<g>
	<g>
		<rect x="2190.4" y="1419.9" class="st8" width="49.7" height="3"/>
	</g>
</g>
<g>
	<rect x="2190.4" y="1429.9" class="st8" width="49.7" height="3"/>
</g>
<ellipse transform="matrix(0.7071 -0.7071 0.7071 0.7071 -240.8222 2959.1567)" class="st4" cx="3451.6" cy="1770.3" rx="106.2" ry="106.2"/>
<path class="st7" d="M3498.7,1800.8h-94.3c-4.3,0-7.9-3.5-7.9-7.9v-49.8c0-4.3,3.5-7.9,7.9-7.9h94.3c4.3,0,7.9,3.5,7.9,7.9v49.8
	C3506.6,1797.3,3503.1,1800.8,3498.7,1800.8z"/>
<rect x="3475.7" y="1759.1" class="st4" width="21.5" height="14.3"/>
<g>
	<path class="st2" d="M3408.5,1779.2h49.7H3408.5z"/>
	<rect x="3408.5" y="1777.7" class="st8" width="49.7" height="3"/>
</g>
<g>
	<path class="st2" d="M3408.5,1789.2h49.7H3408.5z"/>
	<rect x="3408.5" y="1787.7" class="st8" width="49.7" height="3"/>
</g>
<ellipse transform="matrix(0.7071 -0.7071 0.7071 0.7071 -62.8348 1157.7415)" class="st4" cx="1366.1" cy="654.7" rx="106.2" ry="106.2"/>
<path class="st7" d="M1413.2,685.2H1319c-4.3,0-7.9-3.5-7.9-7.9v-49.8c0-4.3,3.5-7.9,7.9-7.9h94.3c4.3,0,7.9,3.5,7.9,7.9v49.8
	C1421.1,681.7,1417.6,685.2,1413.2,685.2z"/>
<rect x="1390.2" y="643.6" class="st8" width="21.5" height="14.3"/>
<g>
	<rect x="1323" y="662.2" class="st8" width="49.7" height="3"/>
</g>
<g>
	<g>
		<rect x="1323" y="672.1" class="st8" width="49.7" height="3"/>
	</g>
</g>
<ellipse transform="matrix(0.7071 -0.7071 0.7071 0.7071 -920.1783 1448.6003)" class="st2" cx="1288.5" cy="1835.1" rx="90.7" ry="90.7"/>
<g>
	<path class="st7" d="M1337,1891.1h-94.3v-118.3h72.7l21.7,19.5V1891.1z M1245.6,1888.1h88.3v-94.5l-19.8-17.8h-68.5V1888.1z"/>
</g>
<g>
	<polygon class="st7" points="1312.4,1799.7 1313.2,1774.2 1316.2,1774.3 1315.5,1795.9 1335.1,1791.5 1335.8,1794.4 	"/>
</g>
<g>
	<rect x="1264.5" y="1813.2" class="st7" width="48" height="3"/>
</g>
<g>
	<rect x="1264.5" y="1833.6" class="st7" width="48" height="3"/>
</g>
<g>
	<rect x="1264.5" y="1853.9" class="st7" width="48" height="3"/>
</g>
<ellipse transform="matrix(0.7071 -0.7071 0.7071 0.7071 -533.1605 2735.7661)" class="st2" cx="3035.8" cy="2011.5" rx="90.7" ry="90.7"/>
<g>
	<path class="st7" d="M3084.2,2067.5h-94.3v-118.3h72.7l21.7,19.5V2067.5z M2992.9,2064.5h88.3V1970l-19.8-17.8h-68.5V2064.5z"/>
</g>
<g>
	<polygon class="st7" points="3059.6,1976.1 3060.5,1950.6 3063.5,1950.7 3062.8,1972.3 3082.4,1967.9 3083,1970.8 	"/>
</g>
<g>
	<rect x="3011.8" y="1989.6" class="st7" width="48" height="3"/>
</g>
<g>
	<rect x="3011.8" y="2010" class="st7" width="48" height="3"/>
</g>
<g>
	<rect x="3011.8" y="2030.3" class="st7" width="48" height="3"/>
</g>
<ellipse transform="matrix(0.7071 -0.7071 0.7071 0.7071 120.2758 3375.2075)" class="st2" cx="4134.4" cy="1542.4" rx="75.6" ry="75.6"/>
<circle class="st4" cx="3841" cy="791.7" r="52"/>
<path class="st7" d="M4168.4,1511.3h-68c-4.9,0-8.9,4-8.9,8.9v38.8c0,4.9,4,8.9,8.9,8.9h2.9v22.8l16.6-22.8h48.6
	c4.9,0,8.9-4,8.9-8.9v-38.8C4177.3,1515.2,4173.3,1511.3,4168.4,1511.3z"/>
<g>
	<path class="st2" d="M4106.9,1527.7h56.5H4106.9z"/>
	<rect x="4106.9" y="1526.2" class="st2" width="56.5" height="3"/>
</g>
<g>
	<path class="st2" d="M4106.9,1538.2h56.5H4106.9z"/>
	<rect x="4106.9" y="1536.7" class="st2" width="56.5" height="3"/>
</g>
<g>
	<path class="st2" d="M4106.9,1548.7h56.5H4106.9z"/>
	<rect x="4106.9" y="1547.2" class="st2" width="56.5" height="3"/>
</g>
<g>
	<circle class="st3" cx="3035.8" cy="1088.2" r="75.6"/>
	<path class="st7" d="M3069.8,1057h-68c-4.9,0-8.9,4-8.9,8.9v38.8c0,4.9,4,8.9,8.9,8.9h2.9v22.8l16.6-22.8h48.6c4.9,0,8.9-4,8.9-8.9
		v-38.8C3078.7,1061,3074.7,1057,3069.8,1057z"/>
	<g>
		<path class="st2" d="M3008.3,1073.5h56.5H3008.3z"/>
		<rect x="3008.3" y="1072" class="st2" width="56.5" height="3"/>
	</g>
	<g>
		<path class="st2" d="M3008.3,1084h56.5H3008.3z"/>
		<rect x="3008.3" y="1082.5" class="st2" width="56.5" height="3"/>
	</g>
	<g>
		<path class="st2" d="M3008.3,1094.5h56.5H3008.3z"/>
		<rect x="3008.3" y="1093" class="st2" width="56.5" height="3"/>
	</g>
</g>
<circle class="st3" cx="4279.7" cy="821.8" r="149"/>
<g>
	<path class="st7" d="M3858,773.3c-0.1,1.7-0.3,3.2-0.8,4.5c-0.4,1.3-1,2.6-1.7,3.7c-0.7,1.1-1.4,2.2-2.3,3.1
		c-0.9,1-1.8,1.9-2.6,2.9c-1.4,1.5-2.7,3-3.8,4.5c-1.1,1.5-1.7,3.2-1.7,5.1v4.2h-7.4v-4.4c0-2,0.4-3.8,1.1-5.5
		c0.8-1.7,1.8-3.2,3.1-4.6c0.8-0.9,1.8-1.8,2.7-2.9c1-1,1.9-2.1,2.7-3.1s1.5-2.2,2.1-3.4c0.6-1.1,0.8-2.3,0.8-3.5
		c0-0.8-0.1-1.8-0.4-2.8c-0.3-1-0.7-2-1.5-3c-0.7-1-1.7-1.8-2.9-2.4c-1.2-0.6-2.8-1-4.8-1c-1.7,0-3.2,0.4-4.5,1.2
		c-1.3,0.8-2.3,1.7-3.2,2.9c-0.9,1.1-1.5,2.3-2,3.4c-0.4,1.2-0.7,2.2-0.8,3l-7.1-1.3c0.7-2.7,1.6-5.1,2.8-7.2c1.2-2,2.6-3.7,4.2-5
		c1.6-1.3,3.4-2.3,5.3-2.9c1.9-0.6,4-1,6.1-1c2.5,0,4.7,0.4,6.7,1.2c2,0.8,3.7,1.8,5.2,3.2c1.4,1.4,2.5,3,3.3,4.8
		C3857.6,769.1,3858,771.1,3858,773.3z M3837.4,816.8v-8.2h7.6v8.2H3837.4z"/>
</g>
<circle class="st2" cx="2090.6" cy="2155" r="52"/>
<g>
	<path class="st7" d="M2107.6,2136.6c-0.1,1.7-0.3,3.2-0.8,4.5c-0.4,1.3-1,2.6-1.7,3.7c-0.7,1.1-1.4,2.2-2.3,3.1
		c-0.9,1-1.8,1.9-2.6,2.9c-1.4,1.5-2.7,3-3.8,4.5c-1.1,1.5-1.7,3.2-1.7,5.1v4.2h-7.4v-4.4c0-2,0.4-3.8,1.1-5.5
		c0.8-1.7,1.8-3.2,3.1-4.6c0.8-0.9,1.8-1.8,2.7-2.9c1-1,1.9-2.1,2.7-3.2c0.8-1.1,1.5-2.2,2.1-3.4c0.6-1.1,0.8-2.3,0.8-3.5
		c0-0.8-0.1-1.8-0.4-2.8c-0.3-1-0.7-2-1.5-3c-0.7-1-1.7-1.7-2.9-2.4c-1.2-0.6-2.8-1-4.8-1c-1.7,0-3.2,0.4-4.5,1.2
		c-1.3,0.8-2.3,1.7-3.2,2.9c-0.9,1.1-1.5,2.3-2,3.4c-0.4,1.2-0.7,2.2-0.8,3l-7.1-1.3c0.7-2.7,1.6-5.1,2.8-7.2c1.2-2,2.6-3.7,4.2-5
		c1.6-1.3,3.4-2.3,5.3-2.9c1.9-0.6,4-1,6.1-1c2.5,0,4.7,0.4,6.7,1.2c2,0.8,3.7,1.8,5.2,3.2c1.4,1.4,2.5,3,3.3,4.8
		C2107.2,2132.4,2107.6,2134.4,2107.6,2136.6z M2087,2180.1v-8.2h7.6v8.2H2087z"/>
</g>
</svg>
