<svg xmlns="http://www.w3.org/2000/svg" viewBox="0 0 139.5 139.5"><g id="Layer_2" data-name="Layer 2"><g id="Capa_1" data-name="Capa 1"><path d="M69.75,0A69.75,69.75,0,0,0,0,69.75V136l0,.38a3.64,3.64,0,0,0,3.61,3.15H69.75A69.75,69.75,0,0,0,69.75,0Zm28.8,96.67h-58a8.77,8.77,0,1,1,0-17.53h58a8.77,8.77,0,0,1,0,17.53Zm0-29.72h-58a8.77,8.77,0,1,1,0-17.53h58a8.77,8.77,0,0,1,0,17.53Z" style="fill:#fff"/><path d="M98.55,96.67h-58a8.77,8.77,0,1,1,0-17.53h58a8.77,8.77,0,0,1,0,17.53Z" style="fill:#26217f"/><path d="M98.55,67h-58a8.77,8.77,0,1,1,0-17.53h58a8.77,8.77,0,0,1,0,17.53Z" style="fill:#26217f"/></g></g></svg>