<svg xmlns="http://www.w3.org/2000/svg" viewBox="0 0 223.62 139.5"><g id="Layer_2" data-name="Layer 2"><g id="Capa_1" data-name="Capa 1"><path d="M223.62,50.13A33.57,33.57,0,0,1,190.05,83.7H158.23a1.75,1.75,0,0,1-1.73-1.52,1.09,1.09,0,0,1,0-.18.07.07,0,0,1,0,0V50.13a33.57,33.57,0,0,1,67.14,0Z" style="fill:#26217f"/><path d="M93,72.32h0a3.19,3.19,0,0,1,.66-.28l43.8-18.48.11,0A69.76,69.76,0,0,0,0,69.75V136l0,.38a3.64,3.64,0,0,0,3.61,3.15H69.75a69.72,69.72,0,0,0,60.44-34.92,51.9,51.9,0,0,1-38.4-27h0A3.51,3.51,0,0,1,91.17,76l0-.37v-.1A3.6,3.6,0,0,1,93,72.32Z" style="fill:#fff"/><path d="M82.92,54.39A6.62,6.62,0,1,1,89.53,61,6.62,6.62,0,0,1,82.92,54.39Z" style="fill:#db4e16"/></g></g></svg>