<svg xmlns="http://www.w3.org/2000/svg" viewBox="0 0 167.4 139.85"><g id="Layer_2" data-name="Layer 2"><g id="Capa_1" data-name="Capa 1"><path d="M69.92,0A69.93,69.93,0,0,0,0,69.93v66.38l0,.38a3.65,3.65,0,0,0,3.61,3.16H69.92A69.93,69.93,0,0,0,69.92,0Z" style="fill:#fff"/><path d="M103.51,43v61.44a3.74,3.74,0,0,1-3,3.67H37.7a3.74,3.74,0,0,1-3-3.67V43a3.74,3.74,0,0,1,3.74-3.75H99.77A3.74,3.74,0,0,1,103.51,43Z" style="fill:#db4e16"/><circle cx="54.48" cy="62.55" r="6.54" style="fill:#fff"/><path d="M103.51,104.46V92.66Q95.89,85,88.3,77.38c-.59-.6-.88-.52-1.41,0-6.82,6.92-13.79,13.7-20.52,20.72-.61.63-.91.56-1.49,0-4.65-4.7-9.35-9.34-14-14-.62-.62-.92-.56-1.5,0q-7.34,7.41-14.73,14.76v5.62a3.74,3.74,0,0,0,3,3.67h62.77A3.74,3.74,0,0,0,103.51,104.46Z" style="fill:#fff"/><path d="M142,88.38a25.45,25.45,0,0,0-25.45,25.46V138a.66.66,0,0,0,0,.14,1.32,1.32,0,0,0,1.31,1.15H142a25.46,25.46,0,0,0,0-50.91Z" style="fill:#26217f"/><path d="M138.55,123.34a2.65,2.65,0,0,1-1.86-.77l-7.17-7.17,3.72-3.72,5.31,5.31,12.66-12.66,3.72,3.72-14.52,14.52A2.62,2.62,0,0,1,138.55,123.34Z" style="fill:#fff"/></g></g></svg>