<svg xmlns="http://www.w3.org/2000/svg" viewBox="0 0 157.45 139.63"><g id="Layer_2" data-name="Layer 2"><g id="Capa_1" data-name="Capa 1"><path d="M39.27,139.62h-29c-6,0-10.27-4.21-10.27-10.25q0-39,0-77.93c0-6,4.22-10.23,10.27-10.24q13.85,0,27.67,0h1.32Z" style="fill:#26217f"/><path d="M157.27,67.07c0,.28.07.56.1.84.51,5.09-1.49,10.4-2.55,15.33q-2.25,10.38-4.49,20.75c-1.24,5.76-2.39,11.53-3.8,17.25-2.69,10.88-12.54,18.34-24.16,18.37q-24,.06-48,0c-14.4,0-25.16-10.78-25.17-25.18q0-25.23,0-50.44a25,25,0,0,1,6.68-17.35c5.28-5.82,37.44-37.37,46-45.72l.08-.08a3,3,0,0,1,3.93-.2l.32.29,6.51,5.88L114,8l1,.91,0,0,.45.41,0,.05a15.62,15.62,0,0,1,1.87,20.47s-10.6,12.31-11,13.12c-2.42,4.39-.24,8.07,4.78,8.07,9.43,0,18.87-.09,28.3,0C148.42,51.19,156,58.3,157.27,67.07Z" style="fill:#26217f"/></g></g></svg>