<svg xmlns="http://www.w3.org/2000/svg" viewBox="0 0 167.59 139.5"><g id="Layer_2" data-name="Layer 2"><g id="Capa_1" data-name="Capa 1"><path d="M157.5,75.15a117,117,0,0,1-20.65,22.2c-16.2,13.6-32.65,27-49,40.38-2.88,2.37-5.23,2.35-8.13,0Q60.2,121.88,40.71,106c-9.88-8.11-19.4-16.57-27.36-26.45C8.08,73,3.8,65.93,1.73,57.86.93,54.79.56,51.62,0,48.49V42c.1-.6.24-1.2.31-1.8,1.53-13,7-24.06,18.28-32,11-7.79,23.48-10,36.84-6.67C65.2,4,72.66,9.72,78.65,17.22c.94,1.19,2.91,4,3,4.1h0a2.92,2.92,0,0,0,2.2,1,2.87,2.87,0,0,0,2.1-.88c.15-.15,4.55-6.2,7-8.68C105.35.36,121.5-2.74,137.11,2.32c15.35,5,24.57,15.58,28.62,30.1C170,47.78,166.75,62,157.5,75.15Z" style="fill:#26217f"/></g></g></svg>