<svg xmlns="http://www.w3.org/2000/svg" viewBox="0 0 139.5 139.5"><g id="Layer_2" data-name="Layer 2"><g id="Capa_1" data-name="Capa 1"><path d="M69.75,0A69.75,69.75,0,0,0,0,69.75V136l0,.38a3.64,3.64,0,0,0,3.61,3.15H69.75A69.75,69.75,0,0,0,69.75,0Z" style="fill:#fff"/><path d="M104.74,63l-.2.21L88.47,78.91,92.25,101l.06.33v0a1.19,1.19,0,0,1-1.65,1.09h0l-.12-.06L70.6,91.89,50.75,102.33h0l-.18.1h0a1.13,1.13,0,0,1-.45.09,1.18,1.18,0,0,1-1.18-1.19v-.12a.59.59,0,0,0,0-.13l3.81-22.18L36.66,63.24l-.19-.18h0a1.12,1.12,0,0,1-.27-.74,1.17,1.17,0,0,1,.94-1.15l.12,0,22.3-3.24,9.9-20.07.19-.39a1.19,1.19,0,0,1,1.9,0l.18.36L81.64,57.9l22.27,3.24.17,0a1.18,1.18,0,0,1,.92,1.15A1.16,1.16,0,0,1,104.74,63Z" style="fill:#db4e16"/></g></g></svg>