<svg xmlns="http://www.w3.org/2000/svg" viewBox="0 0 167.08 139.65"><g id="Layer_2" data-name="Layer 2"><g id="Capa_1" data-name="Capa 1"><path d="M69.82,0A69.82,69.82,0,0,0,0,69.83v66.29l0,.37a3.65,3.65,0,0,0,3.61,3.16H69.82A69.83,69.83,0,0,0,69.82,0Z" style="fill:#fff"/><path d="M81.22,75.83l1.2-.48,1.2-.49h0a22.81,22.81,0,0,0,4.57,6.43A31.28,31.28,0,0,0,104.91,90,39.39,39.39,0,1,0,30.55,71.83v37.34a.13.13,0,0,0,0,.06,1.48,1.48,0,0,0,0,.21,2,2,0,0,0,2,1.78H69.94a39.36,39.36,0,0,0,33.64-18.88C86.59,88.66,81.44,76.37,81.22,75.83Z" style="fill:#db4e16"/><polygon points="82.42 75.35 83.62 74.86 83.62 74.86 82.42 75.35" style="fill:#db4e16"/><path d="M76.8,63.75a3.69,3.69,0,1,1,3.69,3.69A3.69,3.69,0,0,1,76.8,63.75Z" style="fill:#fff"/><path d="M141.67,88.52a25.42,25.42,0,0,0-25.42,25.42v24.13s0,.09,0,.13a1.33,1.33,0,0,0,1.32,1.15h24.09a25.42,25.42,0,0,0,0-50.83Z" style="fill:#26217f"/><path d="M148.85,112.6a3.16,3.16,0,0,1,1.75,1.13,2.67,2.67,0,0,1,.6,1.58c0,1.13,0,2.26,0,3.39,0,2.44,0,4.88,0,7.32a3,3,0,0,1-2.46,3.07s0,0-.06,0H133.54c-.1-.11-.25-.1-.38-.14a2.9,2.9,0,0,1-2.06-2.7c0-2.79,0-5.59,0-8.38,0-.82,0-1.65,0-2.47a2.93,2.93,0,0,1,2.23-2.8l.13-.05a1,1,0,0,1,.66-.14c1,0,1.92,0,2.88,0,1.53,0,3.07,0,4.6,0,1.24,0,2.47,0,3.71,0,1.08,0,2.16,0,3.24,0A.4.4,0,0,1,148.85,112.6Z" style="fill:#fff"/><path d="M137,112.54h-2.12a13.57,13.57,0,0,0-1.43,0c0-1.54,0-3.07,0-4.61a7.43,7.43,0,0,1,1.73-4.46,7.54,7.54,0,0,1,4.51-2.68,7.7,7.7,0,0,1,8.78,5.29,8.16,8.16,0,0,1,.35,2.35c0,1.37,0,2.74,0,4.11-1.18-.1-2.37,0-3.55-.06a.65.65,0,0,1-.07-.41c0-1.17,0-2.34,0-3.52a4.35,4.35,0,0,0-.68-2.42,4.06,4.06,0,0,0-6.2-.72,4.2,4.2,0,0,0-1.28,3.14c0,1.18,0,2.35,0,3.52A.65.65,0,0,1,137,112.54Z" style="fill:#fff"/><path d="M141.15,125.58c-.37,0-.74,0-1.11,0a.61.61,0,0,1-.65-.76q.2-1.42.42-2.85a.35.35,0,0,0-.2-.4,2.93,2.93,0,0,1-1.3-3.33,2.95,2.95,0,0,1,5.67,0,2.94,2.94,0,0,1-1.28,3.34.36.36,0,0,0-.19.45c.15.94.28,1.88.41,2.82a.61.61,0,0,1-.66.75C141.89,125.59,141.52,125.58,141.15,125.58Z" style="fill:#26217f"/></g></g></svg>