<svg xmlns="http://www.w3.org/2000/svg" viewBox="0 0 139.55 139.55"><g id="Layer_2" data-name="Layer 2"><g id="Capa_1" data-name="Capa 1"><path d="M69.77,0A69.78,69.78,0,0,0,0,69.78V136l0,.38a3.64,3.64,0,0,0,3.61,3.15H69.77A69.78,69.78,0,1,0,69.77,0Z" style="fill:#fff"/><path d="M69.77,55.81a16,16,0,1,0,16,16A16,16,0,0,0,69.77,55.81Zm6.79,24.66a11.55,11.55,0,0,1-6.07,2.35,1.17,1.17,0,0,0-.74.2.79.79,0,0,0-.58-.18,11.16,11.16,0,0,1-7.46-3.56,10.68,10.68,0,0,1-3-6.8A11.16,11.16,0,0,1,69,60.71c.26,0,.55,0,.75-.21.41.4,1,.27,1.49.34a11,11,0,0,1,9.55,10.84A10.67,10.67,0,0,1,76.56,80.47Z" style="fill:#db4e16"/><path d="M103.57,76.73c1.54-.3,3.09-.5,4.64-.75V67.57a1.26,1.26,0,0,0-.74-.33l-3.11-.47a4.61,4.61,0,0,1-2.71-1.16,4.37,4.37,0,0,1,.45-6.71c.86-.68,1.7-1.4,2.55-2.09a.86.86,0,0,0,.22-1.29c-1.15-1.94-2.26-3.9-3.4-5.84-.47-.81-.66-.87-1.52-.54-1.07.4-2.14.84-3.23,1.2a4.3,4.3,0,0,1-3,0,4.26,4.26,0,0,1-2.52-5.41c.38-1.14.84-2.25,1.26-3.38.29-.78.23-1-.5-1.41-2-1.18-4-2.3-6-3.47a.84.84,0,0,0-1.22.25c-.83,1-1.59,2-2.45,2.93A4.08,4.08,0,0,1,77.79,41a4,4,0,0,1-2.94-3.46c-.18-1.11-.39-2.21-.53-3.33a1.37,1.37,0,0,0-.34-.89H65.57c-.19,1.3-.44,2.6-.58,3.92a4.34,4.34,0,0,1-3.07,4A4.22,4.22,0,0,1,57,39.91c-.83-1-1.64-2-2.45-2.94-.24-.28-.44-.4-.82-.17-2.09,1.23-4.19,2.43-6.3,3.63-.37.21-.4.42-.25.79.46,1.18.91,2.38,1.34,3.58a4.61,4.61,0,0,1,.22,2.42,4.55,4.55,0,0,1-5.12,3.55,34.49,34.49,0,0,1-4.38-1.54c-.44-.16-.65-.11-.89.31-1.15,2.05-2.31,4.09-3.52,6.1a.64.64,0,0,0,.17,1c1,.82,2,1.65,3,2.51a4.17,4.17,0,0,1,1.19,4.78A4.32,4.32,0,0,1,35.32,67c-1.16.14-2.31.38-3.47.54-.42.06-.52.24-.52.63q0,3.64,0,7.28c0,.37.09.54.48.59,1.16.16,2.3.42,3.47.55a4.31,4.31,0,0,1,3.93,3.09,4.18,4.18,0,0,1-1.28,4.82C37,85.31,36,86.13,35,86.93a.61.61,0,0,0-.16.94c1.22,2,2.39,4.1,3.56,6.17a.56.56,0,0,0,.84.29c1.18-.48,2.38-.91,3.58-1.34a4.32,4.32,0,0,1,2.49-.2,4.55,4.55,0,0,1,3.46,5.06,32.33,32.33,0,0,1-1.53,4.37c-.16.46-.15.7.32,1,2,1.14,4,2.29,6,3.49.47.28.73.25,1.06-.16.85-1,1.7-2.1,2.6-3.1a4.51,4.51,0,0,1,7.56,2.12c.28,1.4.49,2.8.7,4.21.06.37.2.5.58.49,1.22,0,2.45,0,3.67,0s2.41,0,3.61,0c.51,0,.65-.24.71-.64.16-1.11.32-2.22.49-3.33a4.69,4.69,0,0,1,1.11-2.65,4.51,4.51,0,0,1,6.81,0q1.27,1.42,2.43,2.94c.32.42.54.37.91.16q3.08-1.81,6.16-3.58c.41-.23.51-.43.33-.88-.42-1-.76-2.06-1.17-3.08a4.54,4.54,0,0,1,6.07-6c1,.4,2.06.75,3.08,1.16a.56.56,0,0,0,.84-.29c1.19-2.11,2.41-4.21,3.64-6.3.21-.36.15-.53-.17-.78-1.11-.89-2.23-1.78-3.27-2.75a4.5,4.5,0,0,1,2.21-7.49ZM69.77,92.85A21.07,21.07,0,1,1,90.84,71.78,21.1,21.1,0,0,1,69.77,92.85Z" style="fill:#db4e16"/></g></g></svg>