<svg xmlns="http://www.w3.org/2000/svg" viewBox="0 0 167.4 140.16"><g id="Layer_2" data-name="Layer 2"><g id="Capa_1" data-name="Capa 1"><path d="M70.08,0A70.08,70.08,0,0,0,0,70.08v66.53L0,137a3.66,3.66,0,0,0,3.62,3.17H70.08A70.08,70.08,0,0,0,70.08,0Z" style="fill:#fff"/><path d="M97.29,74.87a1.57,1.57,0,0,1-.81,1.36L72.7,90,49,103.65l-.15.09a1.59,1.59,0,0,1-.72.17,1.54,1.54,0,0,1-1.54-1.54v-55a1.54,1.54,0,0,1,1.54-1.55,1.64,1.64,0,0,1,.67.15l.22.13L72.7,59.79,96.35,73.45h0l.3.17A1.52,1.52,0,0,1,97.29,74.87Z" style="fill:#db4e16"/><path d="M141.89,88.58a25.51,25.51,0,0,0-25.51,25.51v24.18a.08.08,0,0,0,0,0,.57.57,0,0,0,0,.13,1.33,1.33,0,0,0,1.31,1.16h24.18a25.51,25.51,0,1,0,0-51Z" style="fill:#26217f"/><path d="M138.49,123.61a2.64,2.64,0,0,1-1.86-.77l-7.19-7.19,3.73-3.72,5.32,5.32,12.69-12.69,3.72,3.73-14.55,14.55A2.64,2.64,0,0,1,138.49,123.61Z" style="fill:#fff"/></g></g></svg>