<svg xmlns="http://www.w3.org/2000/svg" viewBox="0 0 167.58 140.33"><g id="Layer_2" data-name="Layer 2"><g id="Capa_1" data-name="Capa 1"><path d="M128.05,4.78H7.36A7.35,7.35,0,0,0,0,12.14V133a7.36,7.36,0,0,0,6,7.23H129.42a7.36,7.36,0,0,0,6-7.23V12.14A7.35,7.35,0,0,0,128.05,4.78ZM39.32,108a7.87,7.87,0,1,1-7.87-7.87h7.46a.42.42,0,0,1,.41.36v0h0Zm0-23.39a7.87,7.87,0,1,1-7.87-7.87h7.46a.42.42,0,0,1,.41.36v0h0Zm0-23.39a7.87,7.87,0,1,1-7.87-7.87h7.46a.42.42,0,0,1,.41.36v0h0Zm0-23.39A7.87,7.87,0,1,1,31.45,30h7.46a.42.42,0,0,1,.41.36v0h0ZM63.49,108a7.87,7.87,0,1,1-7.87-7.87h7.46a.42.42,0,0,1,.41.36v0h0Zm0-23.39a7.87,7.87,0,1,1-7.87-7.87h7.46a.42.42,0,0,1,.41.36v0h0Zm0-23.39a7.87,7.87,0,1,1-7.87-7.87h7.46a.42.42,0,0,1,.41.36v0h0Zm0-23.39A7.87,7.87,0,1,1,55.62,30h7.46a.42.42,0,0,1,.41.36v0h0ZM87.66,108a7.87,7.87,0,1,1-7.87-7.87h7.46a.4.4,0,0,1,.4.36v0h0Zm0-23.39a7.87,7.87,0,1,1-7.87-7.87h7.46a.4.4,0,0,1,.4.36v0h0Zm0-23.39a7.87,7.87,0,1,1-7.87-7.87h7.46a.4.4,0,0,1,.4.36v0h0Zm0-23.39A7.87,7.87,0,1,1,79.79,30h7.46a.4.4,0,0,1,.4.36v0h0ZM111.82,108a7.87,7.87,0,1,1-7.86-7.87h7.45a.42.42,0,0,1,.41.36v0h0Zm0-23.39A7.87,7.87,0,1,1,104,76.76h7.45a.42.42,0,0,1,.41.36v0h0Zm0-23.39A7.87,7.87,0,1,1,104,53.37h7.45a.42.42,0,0,1,.41.36v0h0Zm0-23.39A7.87,7.87,0,1,1,104,30h7.45a.42.42,0,0,1,.41.36v0h0Z" style="fill:#fff"/><path d="M43.45.49v8c0,.24-.38.44-.88.48H24.46c-.5,0-.88-.24-.88-.48v-8c0-.27.49-.49,1.08-.49H42.37C43,0,43.45.22,43.45.49Z" style="fill:#db4e16"/><path d="M113.89.49v8c0,.24-.38.44-.88.48H94.9c-.5,0-.88-.24-.88-.48v-8C94,.22,94.51,0,95.1,0h17.71C113.41,0,113.89.22,113.89.49Z" style="fill:#db4e16"/><path d="M141.87,88.92a25.7,25.7,0,0,0-25.7,25.71V139a.66.66,0,0,0,0,.14,1.33,1.33,0,0,0,1.33,1.16h24.36a25.71,25.71,0,1,0,0-51.41Z" style="fill:#db4e16"/><path d="M138.44,124.22a2.64,2.64,0,0,1-1.87-.77l-7.25-7.25,3.76-3.75,5.36,5.36L151.23,105l3.75,3.75-14.66,14.67A2.68,2.68,0,0,1,138.44,124.22Z" style="fill:#fff"/><path d="M39.32,108a7.87,7.87,0,1,1-7.87-7.87h7.46a.42.42,0,0,1,.41.36v0h0Z" style="fill:#26217f"/><path d="M39.32,84.63a7.87,7.87,0,1,1-7.87-7.87h7.46a.42.42,0,0,1,.41.36v0h0Z" style="fill:#26217f"/><path d="M39.32,61.24a7.87,7.87,0,1,1-7.87-7.87h7.46a.42.42,0,0,1,.41.36v0h0Z" style="fill:#26217f"/><path d="M39.32,37.85A7.87,7.87,0,1,1,31.45,30h7.46a.42.42,0,0,1,.41.36v0h0Z" style="fill:#26217f"/><path d="M63.49,108a7.87,7.87,0,1,1-7.87-7.87h7.46a.42.42,0,0,1,.41.36v0h0Z" style="fill:#26217f"/><path d="M63.49,84.63a7.87,7.87,0,1,1-7.87-7.87h7.46a.42.42,0,0,1,.41.36v0h0Z" style="fill:#26217f"/><path d="M63.49,61.24a7.87,7.87,0,1,1-7.87-7.87h7.46a.42.42,0,0,1,.41.36v0h0Z" style="fill:#26217f"/><path d="M63.49,37.85A7.87,7.87,0,1,1,55.62,30h7.46a.42.42,0,0,1,.41.36v0h0Z" style="fill:#26217f"/><path d="M87.66,108a7.87,7.87,0,1,1-7.87-7.87h7.46a.4.4,0,0,1,.4.36v0h0Z" style="fill:#26217f"/><path d="M87.66,84.63a7.87,7.87,0,1,1-7.87-7.87h7.46a.4.4,0,0,1,.4.36v0h0Z" style="fill:#26217f"/><path d="M87.66,61.24a7.87,7.87,0,1,1-7.87-7.87h7.46a.4.4,0,0,1,.4.36v0h0Z" style="fill:#26217f"/><path d="M87.66,37.85A7.87,7.87,0,1,1,79.79,30h7.46a.4.4,0,0,1,.4.36v0h0Z" style="fill:#26217f"/><path d="M111.82,108a7.87,7.87,0,1,1-7.86-7.87h7.45a.42.42,0,0,1,.41.36v0h0Z" style="fill:#26217f"/><path d="M111.82,84.63A7.87,7.87,0,1,1,104,76.76h7.45a.42.42,0,0,1,.41.36v0h0Z" style="fill:#26217f"/><path d="M111.82,61.24A7.87,7.87,0,1,1,104,53.37h7.45a.42.42,0,0,1,.41.36v0h0Z" style="fill:#26217f"/><path d="M111.82,37.85A7.87,7.87,0,1,1,104,30h7.45a.42.42,0,0,1,.41.36v0h0Z" style="fill:#26217f"/></g></g></svg>