<svg xmlns="http://www.w3.org/2000/svg" viewBox="0 0 167.4 139.65"><g id="Layer_2" data-name="Layer 2"><g id="Capa_1" data-name="Capa 1"><path d="M69.82,0A69.82,69.82,0,0,0,0,69.83v66.29l0,.37a3.65,3.65,0,0,0,3.61,3.16H69.82A69.83,69.83,0,0,0,69.82,0Z" style="fill:#fff"/><path d="M81.22,75.83l1.2-.48,1.2-.49h0a22.81,22.81,0,0,0,4.57,6.43A31.28,31.28,0,0,0,104.91,90,39.39,39.39,0,1,0,30.55,71.83v37.34a.13.13,0,0,0,0,.06,1.48,1.48,0,0,0,0,.21,2,2,0,0,0,2,1.78H69.94a39.36,39.36,0,0,0,33.64-18.88C86.59,88.66,81.44,76.37,81.22,75.83Z" style="fill:#26217f"/><polygon points="82.42 75.35 83.62 74.86 83.62 74.86 82.42 75.35" style="fill:#26217f"/><path d="M76.8,63.75a3.69,3.69,0,1,1,3.69,3.69A3.69,3.69,0,0,1,76.8,63.75Z" style="fill:#fff"/><path d="M142,88.52a25.42,25.42,0,0,0-25.41,25.42v24.13a.57.57,0,0,0,0,.13,1.33,1.33,0,0,0,1.31,1.15H142a25.42,25.42,0,1,0,0-50.83Z" style="fill:#db4e16"/><polygon points="152.34 111.8 144.63 111.8 144.63 104.09 138.32 104.09 138.32 111.8 130.61 111.8 130.61 118.11 138.32 118.11 138.32 125.82 144.63 125.82 144.63 118.11 152.34 118.11 152.34 111.8" style="fill:#fff"/></g></g></svg>