<svg xmlns="http://www.w3.org/2000/svg" viewBox="0 0 139.5 139.5"><g id="Layer_2" data-name="Layer 2"><g id="Capa_1" data-name="Capa 1"><path d="M69.75,0A69.75,69.75,0,0,0,0,69.75V136l0,.38a3.64,3.64,0,0,0,3.61,3.15H69.75A69.75,69.75,0,0,0,69.75,0ZM40.56,80.8a8.77,8.77,0,0,1-8.69-7.61c0-.31-.05-.61-.06-.91a1,1,0,0,1,0-.25,8.77,8.77,0,1,1,8.77,8.77Zm30.17,0A8.77,8.77,0,0,1,62,73.19c0-.31-.06-.61-.07-.91A1.93,1.93,0,0,1,62,72a8.77,8.77,0,1,1,8.77,8.77Zm27.81,0a8.77,8.77,0,0,1-8.69-7.61c0-.31,0-.61-.06-.91a1.93,1.93,0,0,1,0-.25,8.77,8.77,0,1,1,8.76,8.77Z" style="fill:#fff"/><path d="M40.56,80.8a8.77,8.77,0,0,1-8.69-7.61c0-.31-.05-.61-.06-.91a1,1,0,0,1,0-.25,8.77,8.77,0,1,1,8.77,8.77Z" style="fill:#26217f"/><path d="M70.73,80.8A8.77,8.77,0,0,1,62,73.19c0-.31-.06-.61-.07-.91A1.93,1.93,0,0,1,62,72a8.77,8.77,0,1,1,8.77,8.77Z" style="fill:#26217f"/><path d="M98.54,80.8a8.77,8.77,0,0,1-8.69-7.61c0-.31,0-.61-.06-.91a1.93,1.93,0,0,1,0-.25,8.77,8.77,0,1,1,8.76,8.77Z" style="fill:#26217f"/></g></g></svg>