<svg xmlns="http://www.w3.org/2000/svg" viewBox="0 0 167.22 140.03"><g id="Layer_2" data-name="Layer 2"><g id="Capa_1" data-name="Capa 1"><path d="M84.22,97.91A42.11,42.11,0,0,1,42.11,140H2.19A2.19,2.19,0,0,1,0,138.12c0-.08,0-.15,0-.23v-40a42.11,42.11,0,1,1,84.22,0Z" style="fill:#db4e16"/><path d="M167.22,59v.27L138.73,90.45l-24.61,27a1.16,1.16,0,0,1-.18.2,2.43,2.43,0,0,1-4.14-1.73V84.6c-29-.3-53.21,9.59-73,29.27q-.22.21-.45.45a4.47,4.47,0,0,1-7.4-3.14v-.35c0-3.18,0-6.36.05-9.54A68.52,68.52,0,0,1,98.13,33.82c3.33,0,6.66,0,10,0h1.59V2.44A2.44,2.44,0,0,1,112.15,0a2.39,2.39,0,0,1,1.72.72,1.29,1.29,0,0,1,.16.17l51.75,56.74C166.22,58.12,166.74,58.54,167.22,59Z" style="fill:#fff"/></g></g></svg>